G04 #@! TF.GenerationSoftware,KiCad,Pcbnew,5.0.2+dfsg1-1+deb10u1*
G04 #@! TF.CreationDate,2023-11-15T00:44:58+01:00*
G04 #@! TF.ProjectId,Carte basse tension,43617274-6520-4626-9173-73652074656e,rev?*
G04 #@! TF.SameCoordinates,Original*
G04 #@! TF.FileFunction,Legend,Top*
G04 #@! TF.FilePolarity,Positive*
%FSLAX46Y46*%
G04 Gerber Fmt 4.6, Leading zero omitted, Abs format (unit mm)*
G04 Created by KiCad (PCBNEW 5.0.2+dfsg1-1+deb10u1) date mer. 15 nov. 2023 00:44:58 CET*
%MOMM*%
%LPD*%
G01*
G04 APERTURE LIST*
%ADD10C,0.200000*%
%ADD11C,0.250000*%
%ADD12C,0.120000*%
%ADD13C,0.150000*%
G04 APERTURE END LIST*
D10*
X101238095Y-98000000D02*
X101142857Y-97952380D01*
X101000000Y-97952380D01*
X100857142Y-98000000D01*
X100761904Y-98095238D01*
X100714285Y-98190476D01*
X100666666Y-98380952D01*
X100666666Y-98523809D01*
X100714285Y-98714285D01*
X100761904Y-98809523D01*
X100857142Y-98904761D01*
X101000000Y-98952380D01*
X101095238Y-98952380D01*
X101238095Y-98904761D01*
X101285714Y-98857142D01*
X101285714Y-98523809D01*
X101095238Y-98523809D01*
X101714285Y-98952380D02*
X101714285Y-97952380D01*
X102285714Y-98952380D01*
X102285714Y-97952380D01*
X102761904Y-98952380D02*
X102761904Y-97952380D01*
X103000000Y-97952380D01*
X103142857Y-98000000D01*
X103238095Y-98095238D01*
X103285714Y-98190476D01*
X103333333Y-98380952D01*
X103333333Y-98523809D01*
X103285714Y-98714285D01*
X103238095Y-98809523D01*
X103142857Y-98904761D01*
X103000000Y-98952380D01*
X102761904Y-98952380D01*
X106857142Y-97952380D02*
X106380952Y-97952380D01*
X106333333Y-98428571D01*
X106380952Y-98380952D01*
X106476190Y-98333333D01*
X106714285Y-98333333D01*
X106809523Y-98380952D01*
X106857142Y-98428571D01*
X106904761Y-98523809D01*
X106904761Y-98761904D01*
X106857142Y-98857142D01*
X106809523Y-98904761D01*
X106714285Y-98952380D01*
X106476190Y-98952380D01*
X106380952Y-98904761D01*
X106333333Y-98857142D01*
X107238095Y-98285714D02*
X107476190Y-98952380D01*
X107714285Y-98285714D01*
X105640476Y-66389285D02*
X105578571Y-66451190D01*
X105392857Y-66513095D01*
X105269047Y-66513095D01*
X105083333Y-66451190D01*
X104959523Y-66327380D01*
X104897619Y-66203571D01*
X104835714Y-65955952D01*
X104835714Y-65770238D01*
X104897619Y-65522619D01*
X104959523Y-65398809D01*
X105083333Y-65275000D01*
X105269047Y-65213095D01*
X105392857Y-65213095D01*
X105578571Y-65275000D01*
X105640476Y-65336904D01*
X106754761Y-66513095D02*
X106754761Y-65832142D01*
X106692857Y-65708333D01*
X106569047Y-65646428D01*
X106321428Y-65646428D01*
X106197619Y-65708333D01*
X106754761Y-66451190D02*
X106630952Y-66513095D01*
X106321428Y-66513095D01*
X106197619Y-66451190D01*
X106135714Y-66327380D01*
X106135714Y-66203571D01*
X106197619Y-66079761D01*
X106321428Y-66017857D01*
X106630952Y-66017857D01*
X106754761Y-65955952D01*
X107373809Y-66513095D02*
X107373809Y-65646428D01*
X107373809Y-65894047D02*
X107435714Y-65770238D01*
X107497619Y-65708333D01*
X107621428Y-65646428D01*
X107745238Y-65646428D01*
X107992857Y-65646428D02*
X108488095Y-65646428D01*
X108178571Y-65213095D02*
X108178571Y-66327380D01*
X108240476Y-66451190D01*
X108364285Y-66513095D01*
X108488095Y-66513095D01*
X109416666Y-66451190D02*
X109292857Y-66513095D01*
X109045238Y-66513095D01*
X108921428Y-66451190D01*
X108859523Y-66327380D01*
X108859523Y-65832142D01*
X108921428Y-65708333D01*
X109045238Y-65646428D01*
X109292857Y-65646428D01*
X109416666Y-65708333D01*
X109478571Y-65832142D01*
X109478571Y-65955952D01*
X108859523Y-66079761D01*
X111026190Y-66513095D02*
X111026190Y-65213095D01*
X111026190Y-65708333D02*
X111150000Y-65646428D01*
X111397619Y-65646428D01*
X111521428Y-65708333D01*
X111583333Y-65770238D01*
X111645238Y-65894047D01*
X111645238Y-66265476D01*
X111583333Y-66389285D01*
X111521428Y-66451190D01*
X111397619Y-66513095D01*
X111150000Y-66513095D01*
X111026190Y-66451190D01*
X112759523Y-66513095D02*
X112759523Y-65832142D01*
X112697619Y-65708333D01*
X112573809Y-65646428D01*
X112326190Y-65646428D01*
X112202380Y-65708333D01*
X112759523Y-66451190D02*
X112635714Y-66513095D01*
X112326190Y-66513095D01*
X112202380Y-66451190D01*
X112140476Y-66327380D01*
X112140476Y-66203571D01*
X112202380Y-66079761D01*
X112326190Y-66017857D01*
X112635714Y-66017857D01*
X112759523Y-65955952D01*
X113316666Y-66451190D02*
X113440476Y-66513095D01*
X113688095Y-66513095D01*
X113811904Y-66451190D01*
X113873809Y-66327380D01*
X113873809Y-66265476D01*
X113811904Y-66141666D01*
X113688095Y-66079761D01*
X113502380Y-66079761D01*
X113378571Y-66017857D01*
X113316666Y-65894047D01*
X113316666Y-65832142D01*
X113378571Y-65708333D01*
X113502380Y-65646428D01*
X113688095Y-65646428D01*
X113811904Y-65708333D01*
X114369047Y-66451190D02*
X114492857Y-66513095D01*
X114740476Y-66513095D01*
X114864285Y-66451190D01*
X114926190Y-66327380D01*
X114926190Y-66265476D01*
X114864285Y-66141666D01*
X114740476Y-66079761D01*
X114554761Y-66079761D01*
X114430952Y-66017857D01*
X114369047Y-65894047D01*
X114369047Y-65832142D01*
X114430952Y-65708333D01*
X114554761Y-65646428D01*
X114740476Y-65646428D01*
X114864285Y-65708333D01*
X115978571Y-66451190D02*
X115854761Y-66513095D01*
X115607142Y-66513095D01*
X115483333Y-66451190D01*
X115421428Y-66327380D01*
X115421428Y-65832142D01*
X115483333Y-65708333D01*
X115607142Y-65646428D01*
X115854761Y-65646428D01*
X115978571Y-65708333D01*
X116040476Y-65832142D01*
X116040476Y-65955952D01*
X115421428Y-66079761D01*
X117402380Y-65646428D02*
X117897619Y-65646428D01*
X117588095Y-65213095D02*
X117588095Y-66327380D01*
X117650000Y-66451190D01*
X117773809Y-66513095D01*
X117897619Y-66513095D01*
X118826190Y-66451190D02*
X118702380Y-66513095D01*
X118454761Y-66513095D01*
X118330952Y-66451190D01*
X118269047Y-66327380D01*
X118269047Y-65832142D01*
X118330952Y-65708333D01*
X118454761Y-65646428D01*
X118702380Y-65646428D01*
X118826190Y-65708333D01*
X118888095Y-65832142D01*
X118888095Y-65955952D01*
X118269047Y-66079761D01*
X119445238Y-65646428D02*
X119445238Y-66513095D01*
X119445238Y-65770238D02*
X119507142Y-65708333D01*
X119630952Y-65646428D01*
X119816666Y-65646428D01*
X119940476Y-65708333D01*
X120002380Y-65832142D01*
X120002380Y-66513095D01*
X120559523Y-66451190D02*
X120683333Y-66513095D01*
X120930952Y-66513095D01*
X121054761Y-66451190D01*
X121116666Y-66327380D01*
X121116666Y-66265476D01*
X121054761Y-66141666D01*
X120930952Y-66079761D01*
X120745238Y-66079761D01*
X120621428Y-66017857D01*
X120559523Y-65894047D01*
X120559523Y-65832142D01*
X120621428Y-65708333D01*
X120745238Y-65646428D01*
X120930952Y-65646428D01*
X121054761Y-65708333D01*
X121673809Y-66513095D02*
X121673809Y-65646428D01*
X121673809Y-65213095D02*
X121611904Y-65275000D01*
X121673809Y-65336904D01*
X121735714Y-65275000D01*
X121673809Y-65213095D01*
X121673809Y-65336904D01*
X122478571Y-66513095D02*
X122354761Y-66451190D01*
X122292857Y-66389285D01*
X122230952Y-66265476D01*
X122230952Y-65894047D01*
X122292857Y-65770238D01*
X122354761Y-65708333D01*
X122478571Y-65646428D01*
X122664285Y-65646428D01*
X122788095Y-65708333D01*
X122850000Y-65770238D01*
X122911904Y-65894047D01*
X122911904Y-66265476D01*
X122850000Y-66389285D01*
X122788095Y-66451190D01*
X122664285Y-66513095D01*
X122478571Y-66513095D01*
X123469047Y-65646428D02*
X123469047Y-66513095D01*
X123469047Y-65770238D02*
X123530952Y-65708333D01*
X123654761Y-65646428D01*
X123840476Y-65646428D01*
X123964285Y-65708333D01*
X124026190Y-65832142D01*
X124026190Y-66513095D01*
X125511904Y-65646428D02*
X125821428Y-66513095D01*
X126130952Y-65646428D01*
X127307142Y-66513095D02*
X126564285Y-66513095D01*
X126935714Y-66513095D02*
X126935714Y-65213095D01*
X126811904Y-65398809D01*
X126688095Y-65522619D01*
X126564285Y-65584523D01*
X127864285Y-66389285D02*
X127926190Y-66451190D01*
X127864285Y-66513095D01*
X127802380Y-66451190D01*
X127864285Y-66389285D01*
X127864285Y-66513095D01*
X128730952Y-65213095D02*
X128854761Y-65213095D01*
X128978571Y-65275000D01*
X129040476Y-65336904D01*
X129102380Y-65460714D01*
X129164285Y-65708333D01*
X129164285Y-66017857D01*
X129102380Y-66265476D01*
X129040476Y-66389285D01*
X128978571Y-66451190D01*
X128854761Y-66513095D01*
X128730952Y-66513095D01*
X128607142Y-66451190D01*
X128545238Y-66389285D01*
X128483333Y-66265476D01*
X128421428Y-66017857D01*
X128421428Y-65708333D01*
X128483333Y-65460714D01*
X128545238Y-65336904D01*
X128607142Y-65275000D01*
X128730952Y-65213095D01*
X107435714Y-68663095D02*
X107002380Y-68044047D01*
X106692857Y-68663095D02*
X106692857Y-67363095D01*
X107188095Y-67363095D01*
X107311904Y-67425000D01*
X107373809Y-67486904D01*
X107435714Y-67610714D01*
X107435714Y-67796428D01*
X107373809Y-67920238D01*
X107311904Y-67982142D01*
X107188095Y-68044047D01*
X106692857Y-68044047D01*
X108178571Y-68663095D02*
X108054761Y-68601190D01*
X107992857Y-68539285D01*
X107930952Y-68415476D01*
X107930952Y-68044047D01*
X107992857Y-67920238D01*
X108054761Y-67858333D01*
X108178571Y-67796428D01*
X108364285Y-67796428D01*
X108488095Y-67858333D01*
X108550000Y-67920238D01*
X108611904Y-68044047D01*
X108611904Y-68415476D01*
X108550000Y-68539285D01*
X108488095Y-68601190D01*
X108364285Y-68663095D01*
X108178571Y-68663095D01*
X109726190Y-67796428D02*
X109726190Y-68663095D01*
X109169047Y-67796428D02*
X109169047Y-68477380D01*
X109230952Y-68601190D01*
X109354761Y-68663095D01*
X109540476Y-68663095D01*
X109664285Y-68601190D01*
X109726190Y-68539285D01*
X110159523Y-67796428D02*
X110654761Y-67796428D01*
X110345238Y-67363095D02*
X110345238Y-68477380D01*
X110407142Y-68601190D01*
X110530952Y-68663095D01*
X110654761Y-68663095D01*
X111583333Y-68601190D02*
X111459523Y-68663095D01*
X111211904Y-68663095D01*
X111088095Y-68601190D01*
X111026190Y-68477380D01*
X111026190Y-67982142D01*
X111088095Y-67858333D01*
X111211904Y-67796428D01*
X111459523Y-67796428D01*
X111583333Y-67858333D01*
X111645238Y-67982142D01*
X111645238Y-68105952D01*
X111026190Y-68229761D01*
X112759523Y-67796428D02*
X112759523Y-68663095D01*
X112202380Y-67796428D02*
X112202380Y-68477380D01*
X112264285Y-68601190D01*
X112388095Y-68663095D01*
X112573809Y-68663095D01*
X112697619Y-68601190D01*
X112759523Y-68539285D01*
X113378571Y-68663095D02*
X113378571Y-67796428D01*
X113378571Y-68044047D02*
X113440476Y-67920238D01*
X113502380Y-67858333D01*
X113626190Y-67796428D01*
X113750000Y-67796428D01*
X115111904Y-68601190D02*
X115297619Y-68663095D01*
X115607142Y-68663095D01*
X115730952Y-68601190D01*
X115792857Y-68539285D01*
X115854761Y-68415476D01*
X115854761Y-68291666D01*
X115792857Y-68167857D01*
X115730952Y-68105952D01*
X115607142Y-68044047D01*
X115359523Y-67982142D01*
X115235714Y-67920238D01*
X115173809Y-67858333D01*
X115111904Y-67734523D01*
X115111904Y-67610714D01*
X115173809Y-67486904D01*
X115235714Y-67425000D01*
X115359523Y-67363095D01*
X115669047Y-67363095D01*
X115854761Y-67425000D01*
X116597619Y-68663095D02*
X116473809Y-68601190D01*
X116411904Y-68539285D01*
X116350000Y-68415476D01*
X116350000Y-68044047D01*
X116411904Y-67920238D01*
X116473809Y-67858333D01*
X116597619Y-67796428D01*
X116783333Y-67796428D01*
X116907142Y-67858333D01*
X116969047Y-67920238D01*
X117030952Y-68044047D01*
X117030952Y-68415476D01*
X116969047Y-68539285D01*
X116907142Y-68601190D01*
X116783333Y-68663095D01*
X116597619Y-68663095D01*
X117773809Y-68663095D02*
X117650000Y-68601190D01*
X117588095Y-68477380D01*
X117588095Y-67363095D01*
X118826190Y-68663095D02*
X118826190Y-67982142D01*
X118764285Y-67858333D01*
X118640476Y-67796428D01*
X118392857Y-67796428D01*
X118269047Y-67858333D01*
X118826190Y-68601190D02*
X118702380Y-68663095D01*
X118392857Y-68663095D01*
X118269047Y-68601190D01*
X118207142Y-68477380D01*
X118207142Y-68353571D01*
X118269047Y-68229761D01*
X118392857Y-68167857D01*
X118702380Y-68167857D01*
X118826190Y-68105952D01*
X119445238Y-68663095D02*
X119445238Y-67796428D01*
X119445238Y-67363095D02*
X119383333Y-67425000D01*
X119445238Y-67486904D01*
X119507142Y-67425000D01*
X119445238Y-67363095D01*
X119445238Y-67486904D01*
X120064285Y-68663095D02*
X120064285Y-67796428D01*
X120064285Y-68044047D02*
X120126190Y-67920238D01*
X120188095Y-67858333D01*
X120311904Y-67796428D01*
X120435714Y-67796428D01*
X121364285Y-68601190D02*
X121240476Y-68663095D01*
X120992857Y-68663095D01*
X120869047Y-68601190D01*
X120807142Y-68477380D01*
X120807142Y-67982142D01*
X120869047Y-67858333D01*
X120992857Y-67796428D01*
X121240476Y-67796428D01*
X121364285Y-67858333D01*
X121426190Y-67982142D01*
X121426190Y-68105952D01*
X120807142Y-68229761D01*
X122911904Y-67486904D02*
X122973809Y-67425000D01*
X123097619Y-67363095D01*
X123407142Y-67363095D01*
X123530952Y-67425000D01*
X123592857Y-67486904D01*
X123654761Y-67610714D01*
X123654761Y-67734523D01*
X123592857Y-67920238D01*
X122850000Y-68663095D01*
X123654761Y-68663095D01*
X124459523Y-67363095D02*
X124583333Y-67363095D01*
X124707142Y-67425000D01*
X124769047Y-67486904D01*
X124830952Y-67610714D01*
X124892857Y-67858333D01*
X124892857Y-68167857D01*
X124830952Y-68415476D01*
X124769047Y-68539285D01*
X124707142Y-68601190D01*
X124583333Y-68663095D01*
X124459523Y-68663095D01*
X124335714Y-68601190D01*
X124273809Y-68539285D01*
X124211904Y-68415476D01*
X124150000Y-68167857D01*
X124150000Y-67858333D01*
X124211904Y-67610714D01*
X124273809Y-67486904D01*
X124335714Y-67425000D01*
X124459523Y-67363095D01*
X125388095Y-67486904D02*
X125450000Y-67425000D01*
X125573809Y-67363095D01*
X125883333Y-67363095D01*
X126007142Y-67425000D01*
X126069047Y-67486904D01*
X126130952Y-67610714D01*
X126130952Y-67734523D01*
X126069047Y-67920238D01*
X125326190Y-68663095D01*
X126130952Y-68663095D01*
X127245238Y-67796428D02*
X127245238Y-68663095D01*
X126935714Y-67301190D02*
X126626190Y-68229761D01*
X127430952Y-68229761D01*
X125666666Y-119452380D02*
X125857142Y-119452380D01*
X125952380Y-119404761D01*
X126000000Y-119357142D01*
X126095238Y-119214285D01*
X126142857Y-119023809D01*
X126142857Y-118642857D01*
X126095238Y-118547619D01*
X126047619Y-118500000D01*
X125952380Y-118452380D01*
X125761904Y-118452380D01*
X125666666Y-118500000D01*
X125619047Y-118547619D01*
X125571428Y-118642857D01*
X125571428Y-118880952D01*
X125619047Y-118976190D01*
X125666666Y-119023809D01*
X125761904Y-119071428D01*
X125952380Y-119071428D01*
X126047619Y-119023809D01*
X126095238Y-118976190D01*
X126142857Y-118880952D01*
X126571428Y-119452380D02*
X126571428Y-118452380D01*
X126952380Y-118452380D01*
X127047619Y-118500000D01*
X127095238Y-118547619D01*
X127142857Y-118642857D01*
X127142857Y-118785714D01*
X127095238Y-118880952D01*
X127047619Y-118928571D01*
X126952380Y-118976190D01*
X126571428Y-118976190D01*
X127476190Y-118452380D02*
X127714285Y-119452380D01*
X127904761Y-118738095D01*
X128095238Y-119452380D01*
X128333333Y-118452380D01*
X128714285Y-119452380D02*
X128714285Y-118452380D01*
X129047619Y-119166666D01*
X129380952Y-118452380D01*
X129380952Y-119452380D01*
X113867670Y-98719633D02*
X114343860Y-98719633D01*
X113772432Y-99005347D02*
X114105765Y-98005347D01*
X114439098Y-99005347D01*
X115248622Y-98005347D02*
X114772432Y-98005347D01*
X114724813Y-98481538D01*
X114772432Y-98433919D01*
X114867670Y-98386300D01*
X115105765Y-98386300D01*
X115201003Y-98433919D01*
X115248622Y-98481538D01*
X115296241Y-98576776D01*
X115296241Y-98814871D01*
X115248622Y-98910109D01*
X115201003Y-98957728D01*
X115105765Y-99005347D01*
X114867670Y-99005347D01*
X114772432Y-98957728D01*
X114724813Y-98910109D01*
X116867670Y-98719633D02*
X117343860Y-98719633D01*
X116772432Y-99005347D02*
X117105765Y-98005347D01*
X117439098Y-99005347D01*
X118201003Y-98338681D02*
X118201003Y-99005347D01*
X117962908Y-97957728D02*
X117724813Y-98672014D01*
X118343860Y-98672014D01*
X139452380Y-110261904D02*
X140261904Y-110261904D01*
X140357142Y-110214285D01*
X140404761Y-110166666D01*
X140452380Y-110071428D01*
X140452380Y-109880952D01*
X140404761Y-109785714D01*
X140357142Y-109738095D01*
X140261904Y-109690476D01*
X139452380Y-109690476D01*
X140404761Y-109261904D02*
X140452380Y-109119047D01*
X140452380Y-108880952D01*
X140404761Y-108785714D01*
X140357142Y-108738095D01*
X140261904Y-108690476D01*
X140166666Y-108690476D01*
X140071428Y-108738095D01*
X140023809Y-108785714D01*
X139976190Y-108880952D01*
X139928571Y-109071428D01*
X139880952Y-109166666D01*
X139833333Y-109214285D01*
X139738095Y-109261904D01*
X139642857Y-109261904D01*
X139547619Y-109214285D01*
X139500000Y-109166666D01*
X139452380Y-109071428D01*
X139452380Y-108833333D01*
X139500000Y-108690476D01*
X139928571Y-107928571D02*
X139976190Y-107785714D01*
X140023809Y-107738095D01*
X140119047Y-107690476D01*
X140261904Y-107690476D01*
X140357142Y-107738095D01*
X140404761Y-107785714D01*
X140452380Y-107880952D01*
X140452380Y-108261904D01*
X139452380Y-108261904D01*
X139452380Y-107928571D01*
X139500000Y-107833333D01*
X139547619Y-107785714D01*
X139642857Y-107738095D01*
X139738095Y-107738095D01*
X139833333Y-107785714D01*
X139880952Y-107833333D01*
X139928571Y-107928571D01*
X139928571Y-108261904D01*
X124367670Y-98719633D02*
X124843860Y-98719633D01*
X124272432Y-99005347D02*
X124605765Y-98005347D01*
X124939098Y-99005347D01*
X125796241Y-99005347D02*
X125224813Y-99005347D01*
X125510527Y-99005347D02*
X125510527Y-98005347D01*
X125415289Y-98148205D01*
X125320051Y-98243443D01*
X125224813Y-98291062D01*
X121367670Y-98719633D02*
X121843860Y-98719633D01*
X121272432Y-99005347D02*
X121605765Y-98005347D01*
X121939098Y-99005347D01*
X122224813Y-98100586D02*
X122272432Y-98052967D01*
X122367670Y-98005347D01*
X122605765Y-98005347D01*
X122701003Y-98052967D01*
X122748622Y-98100586D01*
X122796241Y-98195824D01*
X122796241Y-98291062D01*
X122748622Y-98433919D01*
X122177194Y-99005347D01*
X122796241Y-99005347D01*
X129261904Y-96571428D02*
X130023809Y-96571428D01*
X129642857Y-96952380D02*
X129642857Y-96190476D01*
X130976190Y-95952380D02*
X130500000Y-95952380D01*
X130452380Y-96428571D01*
X130500000Y-96380952D01*
X130595238Y-96333333D01*
X130833333Y-96333333D01*
X130928571Y-96380952D01*
X130976190Y-96428571D01*
X131023809Y-96523809D01*
X131023809Y-96761904D01*
X130976190Y-96857142D01*
X130928571Y-96904761D01*
X130833333Y-96952380D01*
X130595238Y-96952380D01*
X130500000Y-96904761D01*
X130452380Y-96857142D01*
X131357142Y-96285714D02*
X131595238Y-96952380D01*
X131833333Y-96285714D01*
X125571428Y-95952380D02*
X125666666Y-95952380D01*
X125761904Y-96000000D01*
X125809523Y-96047619D01*
X125857142Y-96142857D01*
X125904761Y-96333333D01*
X125904761Y-96571428D01*
X125857142Y-96761904D01*
X125809523Y-96857142D01*
X125761904Y-96904761D01*
X125666666Y-96952380D01*
X125571428Y-96952380D01*
X125476190Y-96904761D01*
X125428571Y-96857142D01*
X125380952Y-96761904D01*
X125333333Y-96571428D01*
X125333333Y-96333333D01*
X125380952Y-96142857D01*
X125428571Y-96047619D01*
X125476190Y-96000000D01*
X125571428Y-95952380D01*
X126238095Y-96285714D02*
X126476190Y-96952380D01*
X126714285Y-96285714D01*
X108761904Y-82571428D02*
X109523809Y-82571428D01*
X109142857Y-82952380D02*
X109142857Y-82190476D01*
X110476190Y-81952380D02*
X110000000Y-81952380D01*
X109952380Y-82428571D01*
X110000000Y-82380952D01*
X110095238Y-82333333D01*
X110333333Y-82333333D01*
X110428571Y-82380952D01*
X110476190Y-82428571D01*
X110523809Y-82523809D01*
X110523809Y-82761904D01*
X110476190Y-82857142D01*
X110428571Y-82904761D01*
X110333333Y-82952380D01*
X110095238Y-82952380D01*
X110000000Y-82904761D01*
X109952380Y-82857142D01*
X110857142Y-82285714D02*
X111095238Y-82952380D01*
X111333333Y-82285714D01*
X114071428Y-81952380D02*
X114166666Y-81952380D01*
X114261904Y-82000000D01*
X114309523Y-82047619D01*
X114357142Y-82142857D01*
X114404761Y-82333333D01*
X114404761Y-82571428D01*
X114357142Y-82761904D01*
X114309523Y-82857142D01*
X114261904Y-82904761D01*
X114166666Y-82952380D01*
X114071428Y-82952380D01*
X113976190Y-82904761D01*
X113928571Y-82857142D01*
X113880952Y-82761904D01*
X113833333Y-82571428D01*
X113833333Y-82333333D01*
X113880952Y-82142857D01*
X113928571Y-82047619D01*
X113976190Y-82000000D01*
X114071428Y-81952380D01*
X114738095Y-82285714D02*
X114976190Y-82952380D01*
X115214285Y-82285714D01*
D11*
X96250000Y-123269047D02*
X96250000Y-121569047D01*
X96978571Y-123269047D02*
X96978571Y-122378571D01*
X96897619Y-122216666D01*
X96735714Y-122135714D01*
X96492857Y-122135714D01*
X96330952Y-122216666D01*
X96250000Y-122297619D01*
X97545238Y-122135714D02*
X98192857Y-122135714D01*
X97788095Y-121569047D02*
X97788095Y-123026190D01*
X97869047Y-123188095D01*
X98030952Y-123269047D01*
X98192857Y-123269047D01*
X98516666Y-122135714D02*
X99164285Y-122135714D01*
X98759523Y-121569047D02*
X98759523Y-123026190D01*
X98840476Y-123188095D01*
X99002380Y-123269047D01*
X99164285Y-123269047D01*
X99730952Y-122135714D02*
X99730952Y-123835714D01*
X99730952Y-122216666D02*
X99892857Y-122135714D01*
X100216666Y-122135714D01*
X100378571Y-122216666D01*
X100459523Y-122297619D01*
X100540476Y-122459523D01*
X100540476Y-122945238D01*
X100459523Y-123107142D01*
X100378571Y-123188095D01*
X100216666Y-123269047D01*
X99892857Y-123269047D01*
X99730952Y-123188095D01*
X101188095Y-123188095D02*
X101350000Y-123269047D01*
X101673809Y-123269047D01*
X101835714Y-123188095D01*
X101916666Y-123026190D01*
X101916666Y-122945238D01*
X101835714Y-122783333D01*
X101673809Y-122702380D01*
X101430952Y-122702380D01*
X101269047Y-122621428D01*
X101188095Y-122459523D01*
X101188095Y-122378571D01*
X101269047Y-122216666D01*
X101430952Y-122135714D01*
X101673809Y-122135714D01*
X101835714Y-122216666D01*
X102645238Y-123107142D02*
X102726190Y-123188095D01*
X102645238Y-123269047D01*
X102564285Y-123188095D01*
X102645238Y-123107142D01*
X102645238Y-123269047D01*
X102645238Y-122216666D02*
X102726190Y-122297619D01*
X102645238Y-122378571D01*
X102564285Y-122297619D01*
X102645238Y-122216666D01*
X102645238Y-122378571D01*
X104669047Y-121488095D02*
X103211904Y-123673809D01*
X106450000Y-121488095D02*
X104992857Y-123673809D01*
X107745238Y-122135714D02*
X107745238Y-123511904D01*
X107664285Y-123673809D01*
X107583333Y-123754761D01*
X107421428Y-123835714D01*
X107178571Y-123835714D01*
X107016666Y-123754761D01*
X107745238Y-123188095D02*
X107583333Y-123269047D01*
X107259523Y-123269047D01*
X107097619Y-123188095D01*
X107016666Y-123107142D01*
X106935714Y-122945238D01*
X106935714Y-122459523D01*
X107016666Y-122297619D01*
X107097619Y-122216666D01*
X107259523Y-122135714D01*
X107583333Y-122135714D01*
X107745238Y-122216666D01*
X108554761Y-123269047D02*
X108554761Y-122135714D01*
X108554761Y-121569047D02*
X108473809Y-121650000D01*
X108554761Y-121730952D01*
X108635714Y-121650000D01*
X108554761Y-121569047D01*
X108554761Y-121730952D01*
X109121428Y-122135714D02*
X109769047Y-122135714D01*
X109364285Y-121569047D02*
X109364285Y-123026190D01*
X109445238Y-123188095D01*
X109607142Y-123269047D01*
X109769047Y-123269047D01*
X110335714Y-123269047D02*
X110335714Y-121569047D01*
X111064285Y-123269047D02*
X111064285Y-122378571D01*
X110983333Y-122216666D01*
X110821428Y-122135714D01*
X110578571Y-122135714D01*
X110416666Y-122216666D01*
X110335714Y-122297619D01*
X112602380Y-122135714D02*
X112602380Y-123269047D01*
X111873809Y-122135714D02*
X111873809Y-123026190D01*
X111954761Y-123188095D01*
X112116666Y-123269047D01*
X112359523Y-123269047D01*
X112521428Y-123188095D01*
X112602380Y-123107142D01*
X113411904Y-123269047D02*
X113411904Y-121569047D01*
X113411904Y-122216666D02*
X113573809Y-122135714D01*
X113897619Y-122135714D01*
X114059523Y-122216666D01*
X114140476Y-122297619D01*
X114221428Y-122459523D01*
X114221428Y-122945238D01*
X114140476Y-123107142D01*
X114059523Y-123188095D01*
X113897619Y-123269047D01*
X113573809Y-123269047D01*
X113411904Y-123188095D01*
X114950000Y-123107142D02*
X115030952Y-123188095D01*
X114950000Y-123269047D01*
X114869047Y-123188095D01*
X114950000Y-123107142D01*
X114950000Y-123269047D01*
X116488095Y-123188095D02*
X116326190Y-123269047D01*
X116002380Y-123269047D01*
X115840476Y-123188095D01*
X115759523Y-123107142D01*
X115678571Y-122945238D01*
X115678571Y-122459523D01*
X115759523Y-122297619D01*
X115840476Y-122216666D01*
X116002380Y-122135714D01*
X116326190Y-122135714D01*
X116488095Y-122216666D01*
X117459523Y-123269047D02*
X117297619Y-123188095D01*
X117216666Y-123107142D01*
X117135714Y-122945238D01*
X117135714Y-122459523D01*
X117216666Y-122297619D01*
X117297619Y-122216666D01*
X117459523Y-122135714D01*
X117702380Y-122135714D01*
X117864285Y-122216666D01*
X117945238Y-122297619D01*
X118026190Y-122459523D01*
X118026190Y-122945238D01*
X117945238Y-123107142D01*
X117864285Y-123188095D01*
X117702380Y-123269047D01*
X117459523Y-123269047D01*
X118754761Y-123269047D02*
X118754761Y-122135714D01*
X118754761Y-122297619D02*
X118835714Y-122216666D01*
X118997619Y-122135714D01*
X119240476Y-122135714D01*
X119402380Y-122216666D01*
X119483333Y-122378571D01*
X119483333Y-123269047D01*
X119483333Y-122378571D02*
X119564285Y-122216666D01*
X119726190Y-122135714D01*
X119969047Y-122135714D01*
X120130952Y-122216666D01*
X120211904Y-122378571D01*
X120211904Y-123269047D01*
X122235714Y-121488095D02*
X120778571Y-123673809D01*
X123288095Y-121569047D02*
X123288095Y-122783333D01*
X123207142Y-123026190D01*
X123045238Y-123188095D01*
X122802380Y-123269047D01*
X122640476Y-123269047D01*
X124826190Y-122135714D02*
X124826190Y-123269047D01*
X124097619Y-122135714D02*
X124097619Y-123026190D01*
X124178571Y-123188095D01*
X124340476Y-123269047D01*
X124583333Y-123269047D01*
X124745238Y-123188095D01*
X124826190Y-123107142D01*
X125878571Y-123269047D02*
X125716666Y-123188095D01*
X125635714Y-123026190D01*
X125635714Y-121569047D01*
X126526190Y-123269047D02*
X126526190Y-122135714D01*
X126526190Y-121569047D02*
X126445238Y-121650000D01*
X126526190Y-121730952D01*
X126607142Y-121650000D01*
X126526190Y-121569047D01*
X126526190Y-121730952D01*
X127983333Y-123188095D02*
X127821428Y-123269047D01*
X127497619Y-123269047D01*
X127335714Y-123188095D01*
X127254761Y-123026190D01*
X127254761Y-122378571D01*
X127335714Y-122216666D01*
X127497619Y-122135714D01*
X127821428Y-122135714D01*
X127983333Y-122216666D01*
X128064285Y-122378571D01*
X128064285Y-122540476D01*
X127254761Y-122702380D01*
X128792857Y-122135714D02*
X128792857Y-123269047D01*
X128792857Y-122297619D02*
X128873809Y-122216666D01*
X129035714Y-122135714D01*
X129278571Y-122135714D01*
X129440476Y-122216666D01*
X129521428Y-122378571D01*
X129521428Y-123269047D01*
X130250000Y-122783333D02*
X131059523Y-122783333D01*
X130088095Y-123269047D02*
X130654761Y-121569047D01*
X131221428Y-123269047D01*
X131788095Y-123269047D02*
X131788095Y-121569047D01*
X132354761Y-122783333D01*
X132921428Y-121569047D01*
X132921428Y-123269047D01*
X134702380Y-123269047D02*
X134135714Y-122459523D01*
X133730952Y-123269047D02*
X133730952Y-121569047D01*
X134378571Y-121569047D01*
X134540476Y-121650000D01*
X134621428Y-121730952D01*
X134702380Y-121892857D01*
X134702380Y-122135714D01*
X134621428Y-122297619D01*
X134540476Y-122378571D01*
X134378571Y-122459523D01*
X133730952Y-122459523D01*
X135430952Y-122378571D02*
X135997619Y-122378571D01*
X136240476Y-123269047D02*
X135430952Y-123269047D01*
X135430952Y-121569047D01*
X136240476Y-121569047D01*
X136969047Y-123269047D02*
X136969047Y-121569047D01*
X137778571Y-123269047D02*
X137778571Y-121569047D01*
X138750000Y-123269047D01*
X138750000Y-121569047D01*
D12*
G04 #@! TO.C,9PWM / GND*
X140310000Y-82540000D02*
X140310000Y-72380000D01*
X132690000Y-82540000D02*
X140310000Y-82540000D01*
X132690000Y-72380000D02*
X132690000Y-82540000D01*
X140310000Y-72380000D02*
X132690000Y-72380000D01*
X139040000Y-72380000D02*
X139040000Y-82540000D01*
G04 #@! TO.C,SCL / SDA*
X120880000Y-73460000D02*
X131040000Y-73460000D01*
X120880000Y-72190000D02*
X120880000Y-79810000D01*
X120880000Y-79810000D02*
X131040000Y-79810000D01*
X131040000Y-79810000D02*
X131040000Y-72190000D01*
X131040000Y-72190000D02*
X120880000Y-72190000D01*
G04 #@! TO.C,+5v / GND*
X120040000Y-72190000D02*
X109880000Y-72190000D01*
X120040000Y-79810000D02*
X120040000Y-72190000D01*
X109880000Y-79810000D02*
X120040000Y-79810000D01*
X109880000Y-72190000D02*
X109880000Y-79810000D01*
X109880000Y-73460000D02*
X120040000Y-73460000D01*
G04 #@! TO.C,+ 5v DC -*
X93960000Y-83620000D02*
X93960000Y-73460000D01*
X92690000Y-83620000D02*
X100310000Y-83620000D01*
X100310000Y-83620000D02*
X100310000Y-73460000D01*
X100310000Y-73460000D02*
X92690000Y-73460000D01*
X92690000Y-73460000D02*
X92690000Y-83620000D01*
G04 #@! TO.C,AC 5v*
X92690000Y-84960000D02*
X92690000Y-95120000D01*
X100310000Y-84960000D02*
X92690000Y-84960000D01*
X100310000Y-95120000D02*
X100310000Y-84960000D01*
X92690000Y-95120000D02*
X100310000Y-95120000D01*
X93960000Y-95120000D02*
X93960000Y-84960000D01*
G04 #@! TO.C,100K*
X124630000Y-92690000D02*
X127370000Y-92690000D01*
X127370000Y-92690000D02*
X127370000Y-86150000D01*
X127370000Y-86150000D02*
X124630000Y-86150000D01*
X124630000Y-86150000D02*
X124630000Y-92690000D01*
X126000000Y-93460000D02*
X126000000Y-92690000D01*
X126000000Y-85380000D02*
X126000000Y-86150000D01*
G04 #@! TO.C,SCT013-30A/1v*
X139040000Y-84380000D02*
X139040000Y-94540000D01*
X140310000Y-84380000D02*
X132690000Y-84380000D01*
X132690000Y-84380000D02*
X132690000Y-94540000D01*
X132690000Y-94540000D02*
X140310000Y-94540000D01*
X140310000Y-94540000D02*
X140310000Y-84380000D01*
G04 #@! TO.C,4\002C7uF*
X124120000Y-93250000D02*
G75*
G03X124120000Y-93250000I-2620000J0D01*
G01*
X124080000Y-93250000D02*
X118920000Y-93250000D01*
X124080000Y-93290000D02*
X118920000Y-93290000D01*
X124079000Y-93330000D02*
X118921000Y-93330000D01*
X124078000Y-93370000D02*
X118922000Y-93370000D01*
X124076000Y-93410000D02*
X118924000Y-93410000D01*
X124073000Y-93450000D02*
X118927000Y-93450000D01*
X124069000Y-93490000D02*
X122540000Y-93490000D01*
X120460000Y-93490000D02*
X118931000Y-93490000D01*
X124065000Y-93530000D02*
X122540000Y-93530000D01*
X120460000Y-93530000D02*
X118935000Y-93530000D01*
X124061000Y-93570000D02*
X122540000Y-93570000D01*
X120460000Y-93570000D02*
X118939000Y-93570000D01*
X124056000Y-93610000D02*
X122540000Y-93610000D01*
X120460000Y-93610000D02*
X118944000Y-93610000D01*
X124050000Y-93650000D02*
X122540000Y-93650000D01*
X120460000Y-93650000D02*
X118950000Y-93650000D01*
X124043000Y-93690000D02*
X122540000Y-93690000D01*
X120460000Y-93690000D02*
X118957000Y-93690000D01*
X124036000Y-93730000D02*
X122540000Y-93730000D01*
X120460000Y-93730000D02*
X118964000Y-93730000D01*
X124028000Y-93770000D02*
X122540000Y-93770000D01*
X120460000Y-93770000D02*
X118972000Y-93770000D01*
X124020000Y-93810000D02*
X122540000Y-93810000D01*
X120460000Y-93810000D02*
X118980000Y-93810000D01*
X124011000Y-93850000D02*
X122540000Y-93850000D01*
X120460000Y-93850000D02*
X118989000Y-93850000D01*
X124001000Y-93890000D02*
X122540000Y-93890000D01*
X120460000Y-93890000D02*
X118999000Y-93890000D01*
X123991000Y-93930000D02*
X122540000Y-93930000D01*
X120460000Y-93930000D02*
X119009000Y-93930000D01*
X123980000Y-93971000D02*
X122540000Y-93971000D01*
X120460000Y-93971000D02*
X119020000Y-93971000D01*
X123968000Y-94011000D02*
X122540000Y-94011000D01*
X120460000Y-94011000D02*
X119032000Y-94011000D01*
X123955000Y-94051000D02*
X122540000Y-94051000D01*
X120460000Y-94051000D02*
X119045000Y-94051000D01*
X123942000Y-94091000D02*
X122540000Y-94091000D01*
X120460000Y-94091000D02*
X119058000Y-94091000D01*
X123928000Y-94131000D02*
X122540000Y-94131000D01*
X120460000Y-94131000D02*
X119072000Y-94131000D01*
X123914000Y-94171000D02*
X122540000Y-94171000D01*
X120460000Y-94171000D02*
X119086000Y-94171000D01*
X123898000Y-94211000D02*
X122540000Y-94211000D01*
X120460000Y-94211000D02*
X119102000Y-94211000D01*
X123882000Y-94251000D02*
X122540000Y-94251000D01*
X120460000Y-94251000D02*
X119118000Y-94251000D01*
X123865000Y-94291000D02*
X122540000Y-94291000D01*
X120460000Y-94291000D02*
X119135000Y-94291000D01*
X123848000Y-94331000D02*
X122540000Y-94331000D01*
X120460000Y-94331000D02*
X119152000Y-94331000D01*
X123829000Y-94371000D02*
X122540000Y-94371000D01*
X120460000Y-94371000D02*
X119171000Y-94371000D01*
X123810000Y-94411000D02*
X122540000Y-94411000D01*
X120460000Y-94411000D02*
X119190000Y-94411000D01*
X123790000Y-94451000D02*
X122540000Y-94451000D01*
X120460000Y-94451000D02*
X119210000Y-94451000D01*
X123768000Y-94491000D02*
X122540000Y-94491000D01*
X120460000Y-94491000D02*
X119232000Y-94491000D01*
X123747000Y-94531000D02*
X122540000Y-94531000D01*
X120460000Y-94531000D02*
X119253000Y-94531000D01*
X123724000Y-94571000D02*
X122540000Y-94571000D01*
X120460000Y-94571000D02*
X119276000Y-94571000D01*
X123700000Y-94611000D02*
X122540000Y-94611000D01*
X120460000Y-94611000D02*
X119300000Y-94611000D01*
X123675000Y-94651000D02*
X122540000Y-94651000D01*
X120460000Y-94651000D02*
X119325000Y-94651000D01*
X123649000Y-94691000D02*
X122540000Y-94691000D01*
X120460000Y-94691000D02*
X119351000Y-94691000D01*
X123622000Y-94731000D02*
X122540000Y-94731000D01*
X120460000Y-94731000D02*
X119378000Y-94731000D01*
X123595000Y-94771000D02*
X122540000Y-94771000D01*
X120460000Y-94771000D02*
X119405000Y-94771000D01*
X123565000Y-94811000D02*
X122540000Y-94811000D01*
X120460000Y-94811000D02*
X119435000Y-94811000D01*
X123535000Y-94851000D02*
X122540000Y-94851000D01*
X120460000Y-94851000D02*
X119465000Y-94851000D01*
X123504000Y-94891000D02*
X122540000Y-94891000D01*
X120460000Y-94891000D02*
X119496000Y-94891000D01*
X123471000Y-94931000D02*
X122540000Y-94931000D01*
X120460000Y-94931000D02*
X119529000Y-94931000D01*
X123437000Y-94971000D02*
X122540000Y-94971000D01*
X120460000Y-94971000D02*
X119563000Y-94971000D01*
X123401000Y-95011000D02*
X122540000Y-95011000D01*
X120460000Y-95011000D02*
X119599000Y-95011000D01*
X123364000Y-95051000D02*
X122540000Y-95051000D01*
X120460000Y-95051000D02*
X119636000Y-95051000D01*
X123326000Y-95091000D02*
X122540000Y-95091000D01*
X120460000Y-95091000D02*
X119674000Y-95091000D01*
X123285000Y-95131000D02*
X122540000Y-95131000D01*
X120460000Y-95131000D02*
X119715000Y-95131000D01*
X123243000Y-95171000D02*
X122540000Y-95171000D01*
X120460000Y-95171000D02*
X119757000Y-95171000D01*
X123199000Y-95211000D02*
X122540000Y-95211000D01*
X120460000Y-95211000D02*
X119801000Y-95211000D01*
X123153000Y-95251000D02*
X122540000Y-95251000D01*
X120460000Y-95251000D02*
X119847000Y-95251000D01*
X123105000Y-95291000D02*
X122540000Y-95291000D01*
X120460000Y-95291000D02*
X119895000Y-95291000D01*
X123054000Y-95331000D02*
X122540000Y-95331000D01*
X120460000Y-95331000D02*
X119946000Y-95331000D01*
X123000000Y-95371000D02*
X122540000Y-95371000D01*
X120460000Y-95371000D02*
X120000000Y-95371000D01*
X122943000Y-95411000D02*
X122540000Y-95411000D01*
X120460000Y-95411000D02*
X120057000Y-95411000D01*
X122883000Y-95451000D02*
X122540000Y-95451000D01*
X120460000Y-95451000D02*
X120117000Y-95451000D01*
X122819000Y-95491000D02*
X122540000Y-95491000D01*
X120460000Y-95491000D02*
X120181000Y-95491000D01*
X122751000Y-95531000D02*
X122540000Y-95531000D01*
X120460000Y-95531000D02*
X120249000Y-95531000D01*
X122678000Y-95571000D02*
X120322000Y-95571000D01*
X122598000Y-95611000D02*
X120402000Y-95611000D01*
X122511000Y-95651000D02*
X120489000Y-95651000D01*
X122415000Y-95691000D02*
X120585000Y-95691000D01*
X122305000Y-95731000D02*
X120695000Y-95731000D01*
X122177000Y-95771000D02*
X120823000Y-95771000D01*
X122018000Y-95811000D02*
X120982000Y-95811000D01*
X121784000Y-95851000D02*
X121216000Y-95851000D01*
X122975000Y-90445225D02*
X122975000Y-90945225D01*
X123225000Y-90695225D02*
X122725000Y-90695225D01*
G04 #@! TO.C,100K*
X128553013Y-92690000D02*
X131293013Y-92690000D01*
X131293013Y-92690000D02*
X131293013Y-86150000D01*
X131293013Y-86150000D02*
X128553013Y-86150000D01*
X128553013Y-86150000D02*
X128553013Y-92690000D01*
X129923013Y-93460000D02*
X129923013Y-92690000D01*
X129923013Y-85380000D02*
X129923013Y-86150000D01*
G04 #@! TO.C,R/T*
X102576987Y-93620000D02*
X102576987Y-92850000D01*
X102576987Y-85540000D02*
X102576987Y-86310000D01*
X103946987Y-92850000D02*
X103946987Y-86310000D01*
X101206987Y-92850000D02*
X103946987Y-92850000D01*
X101206987Y-86310000D02*
X101206987Y-92850000D01*
X103946987Y-86310000D02*
X101206987Y-86310000D01*
X106500000Y-93620000D02*
X106500000Y-92850000D01*
X106500000Y-85540000D02*
X106500000Y-86310000D01*
X107870000Y-92850000D02*
X107870000Y-86310000D01*
X105130000Y-92850000D02*
X107870000Y-92850000D01*
X105130000Y-86310000D02*
X105130000Y-92850000D01*
X107870000Y-86310000D02*
X105130000Y-86310000D01*
G04 #@! TO.C,100K*
X115870000Y-86310000D02*
X113130000Y-86310000D01*
X113130000Y-86310000D02*
X113130000Y-92850000D01*
X113130000Y-92850000D02*
X115870000Y-92850000D01*
X115870000Y-92850000D02*
X115870000Y-86310000D01*
X114500000Y-85540000D02*
X114500000Y-86310000D01*
X114500000Y-93620000D02*
X114500000Y-92850000D01*
G04 #@! TO.C,4\002C7uF*
X121620000Y-85750000D02*
G75*
G03X121620000Y-85750000I-2620000J0D01*
G01*
X116420000Y-85750000D02*
X121580000Y-85750000D01*
X116420000Y-85710000D02*
X121580000Y-85710000D01*
X116421000Y-85670000D02*
X121579000Y-85670000D01*
X116422000Y-85630000D02*
X121578000Y-85630000D01*
X116424000Y-85590000D02*
X121576000Y-85590000D01*
X116427000Y-85550000D02*
X121573000Y-85550000D01*
X116431000Y-85510000D02*
X117960000Y-85510000D01*
X120040000Y-85510000D02*
X121569000Y-85510000D01*
X116435000Y-85470000D02*
X117960000Y-85470000D01*
X120040000Y-85470000D02*
X121565000Y-85470000D01*
X116439000Y-85430000D02*
X117960000Y-85430000D01*
X120040000Y-85430000D02*
X121561000Y-85430000D01*
X116444000Y-85390000D02*
X117960000Y-85390000D01*
X120040000Y-85390000D02*
X121556000Y-85390000D01*
X116450000Y-85350000D02*
X117960000Y-85350000D01*
X120040000Y-85350000D02*
X121550000Y-85350000D01*
X116457000Y-85310000D02*
X117960000Y-85310000D01*
X120040000Y-85310000D02*
X121543000Y-85310000D01*
X116464000Y-85270000D02*
X117960000Y-85270000D01*
X120040000Y-85270000D02*
X121536000Y-85270000D01*
X116472000Y-85230000D02*
X117960000Y-85230000D01*
X120040000Y-85230000D02*
X121528000Y-85230000D01*
X116480000Y-85190000D02*
X117960000Y-85190000D01*
X120040000Y-85190000D02*
X121520000Y-85190000D01*
X116489000Y-85150000D02*
X117960000Y-85150000D01*
X120040000Y-85150000D02*
X121511000Y-85150000D01*
X116499000Y-85110000D02*
X117960000Y-85110000D01*
X120040000Y-85110000D02*
X121501000Y-85110000D01*
X116509000Y-85070000D02*
X117960000Y-85070000D01*
X120040000Y-85070000D02*
X121491000Y-85070000D01*
X116520000Y-85029000D02*
X117960000Y-85029000D01*
X120040000Y-85029000D02*
X121480000Y-85029000D01*
X116532000Y-84989000D02*
X117960000Y-84989000D01*
X120040000Y-84989000D02*
X121468000Y-84989000D01*
X116545000Y-84949000D02*
X117960000Y-84949000D01*
X120040000Y-84949000D02*
X121455000Y-84949000D01*
X116558000Y-84909000D02*
X117960000Y-84909000D01*
X120040000Y-84909000D02*
X121442000Y-84909000D01*
X116572000Y-84869000D02*
X117960000Y-84869000D01*
X120040000Y-84869000D02*
X121428000Y-84869000D01*
X116586000Y-84829000D02*
X117960000Y-84829000D01*
X120040000Y-84829000D02*
X121414000Y-84829000D01*
X116602000Y-84789000D02*
X117960000Y-84789000D01*
X120040000Y-84789000D02*
X121398000Y-84789000D01*
X116618000Y-84749000D02*
X117960000Y-84749000D01*
X120040000Y-84749000D02*
X121382000Y-84749000D01*
X116635000Y-84709000D02*
X117960000Y-84709000D01*
X120040000Y-84709000D02*
X121365000Y-84709000D01*
X116652000Y-84669000D02*
X117960000Y-84669000D01*
X120040000Y-84669000D02*
X121348000Y-84669000D01*
X116671000Y-84629000D02*
X117960000Y-84629000D01*
X120040000Y-84629000D02*
X121329000Y-84629000D01*
X116690000Y-84589000D02*
X117960000Y-84589000D01*
X120040000Y-84589000D02*
X121310000Y-84589000D01*
X116710000Y-84549000D02*
X117960000Y-84549000D01*
X120040000Y-84549000D02*
X121290000Y-84549000D01*
X116732000Y-84509000D02*
X117960000Y-84509000D01*
X120040000Y-84509000D02*
X121268000Y-84509000D01*
X116753000Y-84469000D02*
X117960000Y-84469000D01*
X120040000Y-84469000D02*
X121247000Y-84469000D01*
X116776000Y-84429000D02*
X117960000Y-84429000D01*
X120040000Y-84429000D02*
X121224000Y-84429000D01*
X116800000Y-84389000D02*
X117960000Y-84389000D01*
X120040000Y-84389000D02*
X121200000Y-84389000D01*
X116825000Y-84349000D02*
X117960000Y-84349000D01*
X120040000Y-84349000D02*
X121175000Y-84349000D01*
X116851000Y-84309000D02*
X117960000Y-84309000D01*
X120040000Y-84309000D02*
X121149000Y-84309000D01*
X116878000Y-84269000D02*
X117960000Y-84269000D01*
X120040000Y-84269000D02*
X121122000Y-84269000D01*
X116905000Y-84229000D02*
X117960000Y-84229000D01*
X120040000Y-84229000D02*
X121095000Y-84229000D01*
X116935000Y-84189000D02*
X117960000Y-84189000D01*
X120040000Y-84189000D02*
X121065000Y-84189000D01*
X116965000Y-84149000D02*
X117960000Y-84149000D01*
X120040000Y-84149000D02*
X121035000Y-84149000D01*
X116996000Y-84109000D02*
X117960000Y-84109000D01*
X120040000Y-84109000D02*
X121004000Y-84109000D01*
X117029000Y-84069000D02*
X117960000Y-84069000D01*
X120040000Y-84069000D02*
X120971000Y-84069000D01*
X117063000Y-84029000D02*
X117960000Y-84029000D01*
X120040000Y-84029000D02*
X120937000Y-84029000D01*
X117099000Y-83989000D02*
X117960000Y-83989000D01*
X120040000Y-83989000D02*
X120901000Y-83989000D01*
X117136000Y-83949000D02*
X117960000Y-83949000D01*
X120040000Y-83949000D02*
X120864000Y-83949000D01*
X117174000Y-83909000D02*
X117960000Y-83909000D01*
X120040000Y-83909000D02*
X120826000Y-83909000D01*
X117215000Y-83869000D02*
X117960000Y-83869000D01*
X120040000Y-83869000D02*
X120785000Y-83869000D01*
X117257000Y-83829000D02*
X117960000Y-83829000D01*
X120040000Y-83829000D02*
X120743000Y-83829000D01*
X117301000Y-83789000D02*
X117960000Y-83789000D01*
X120040000Y-83789000D02*
X120699000Y-83789000D01*
X117347000Y-83749000D02*
X117960000Y-83749000D01*
X120040000Y-83749000D02*
X120653000Y-83749000D01*
X117395000Y-83709000D02*
X117960000Y-83709000D01*
X120040000Y-83709000D02*
X120605000Y-83709000D01*
X117446000Y-83669000D02*
X117960000Y-83669000D01*
X120040000Y-83669000D02*
X120554000Y-83669000D01*
X117500000Y-83629000D02*
X117960000Y-83629000D01*
X120040000Y-83629000D02*
X120500000Y-83629000D01*
X117557000Y-83589000D02*
X117960000Y-83589000D01*
X120040000Y-83589000D02*
X120443000Y-83589000D01*
X117617000Y-83549000D02*
X117960000Y-83549000D01*
X120040000Y-83549000D02*
X120383000Y-83549000D01*
X117681000Y-83509000D02*
X117960000Y-83509000D01*
X120040000Y-83509000D02*
X120319000Y-83509000D01*
X117749000Y-83469000D02*
X117960000Y-83469000D01*
X120040000Y-83469000D02*
X120251000Y-83469000D01*
X117822000Y-83429000D02*
X120178000Y-83429000D01*
X117902000Y-83389000D02*
X120098000Y-83389000D01*
X117989000Y-83349000D02*
X120011000Y-83349000D01*
X118085000Y-83309000D02*
X119915000Y-83309000D01*
X118195000Y-83269000D02*
X119805000Y-83269000D01*
X118323000Y-83229000D02*
X119677000Y-83229000D01*
X118482000Y-83189000D02*
X119518000Y-83189000D01*
X118716000Y-83149000D02*
X119284000Y-83149000D01*
X117525000Y-88554775D02*
X117525000Y-88054775D01*
X117275000Y-88304775D02*
X117775000Y-88304775D01*
G04 #@! TO.C,100K*
X111946987Y-86310000D02*
X109206987Y-86310000D01*
X109206987Y-86310000D02*
X109206987Y-92850000D01*
X109206987Y-92850000D02*
X111946987Y-92850000D01*
X111946987Y-92850000D02*
X111946987Y-86310000D01*
X110576987Y-85540000D02*
X110576987Y-86310000D01*
X110576987Y-93620000D02*
X110576987Y-92850000D01*
G04 #@! TO.C,Arduino NANO*
X139021956Y-117692967D02*
X139021956Y-99652967D01*
X95581956Y-117692967D02*
X139021956Y-117692967D01*
X95581956Y-99652967D02*
X95581956Y-117692967D01*
X98251956Y-102322967D02*
X98251956Y-99652967D01*
X133811956Y-102322967D02*
X98251956Y-102322967D01*
X133811956Y-102322967D02*
X133811956Y-99652967D01*
X98251956Y-115022967D02*
X98251956Y-117692967D01*
X136351956Y-115022967D02*
X98251956Y-115022967D01*
X136351956Y-115022967D02*
X136351956Y-117692967D01*
X139021956Y-99652967D02*
X136351956Y-99652967D01*
X133811956Y-99652967D02*
X95581956Y-99652967D01*
X136351956Y-102322967D02*
X136351956Y-99652967D01*
X133811956Y-102322967D02*
X136351956Y-102322967D01*
G04 #@! TO.C,*
D13*
G04 #@! TO.C,9PWM / GND*
X142452380Y-82142857D02*
X142452380Y-81952380D01*
X142404761Y-81857142D01*
X142357142Y-81809523D01*
X142214285Y-81714285D01*
X142023809Y-81666666D01*
X141642857Y-81666666D01*
X141547619Y-81714285D01*
X141500000Y-81761904D01*
X141452380Y-81857142D01*
X141452380Y-82047619D01*
X141500000Y-82142857D01*
X141547619Y-82190476D01*
X141642857Y-82238095D01*
X141880952Y-82238095D01*
X141976190Y-82190476D01*
X142023809Y-82142857D01*
X142071428Y-82047619D01*
X142071428Y-81857142D01*
X142023809Y-81761904D01*
X141976190Y-81714285D01*
X141880952Y-81666666D01*
X142452380Y-81238095D02*
X141452380Y-81238095D01*
X141452380Y-80857142D01*
X141500000Y-80761904D01*
X141547619Y-80714285D01*
X141642857Y-80666666D01*
X141785714Y-80666666D01*
X141880952Y-80714285D01*
X141928571Y-80761904D01*
X141976190Y-80857142D01*
X141976190Y-81238095D01*
X141452380Y-80333333D02*
X142452380Y-80095238D01*
X141738095Y-79904761D01*
X142452380Y-79714285D01*
X141452380Y-79476190D01*
X142452380Y-79095238D02*
X141452380Y-79095238D01*
X142166666Y-78761904D01*
X141452380Y-78428571D01*
X142452380Y-78428571D01*
X141404761Y-76476190D02*
X142690476Y-77333333D01*
X141500000Y-74857142D02*
X141452380Y-74952380D01*
X141452380Y-75095238D01*
X141500000Y-75238095D01*
X141595238Y-75333333D01*
X141690476Y-75380952D01*
X141880952Y-75428571D01*
X142023809Y-75428571D01*
X142214285Y-75380952D01*
X142309523Y-75333333D01*
X142404761Y-75238095D01*
X142452380Y-75095238D01*
X142452380Y-75000000D01*
X142404761Y-74857142D01*
X142357142Y-74809523D01*
X142023809Y-74809523D01*
X142023809Y-75000000D01*
X142452380Y-74380952D02*
X141452380Y-74380952D01*
X142452380Y-73809523D01*
X141452380Y-73809523D01*
X142452380Y-73333333D02*
X141452380Y-73333333D01*
X141452380Y-73095238D01*
X141500000Y-72952380D01*
X141595238Y-72857142D01*
X141690476Y-72809523D01*
X141880952Y-72761904D01*
X142023809Y-72761904D01*
X142214285Y-72809523D01*
X142309523Y-72857142D01*
X142404761Y-72952380D01*
X142452380Y-73095238D01*
X142452380Y-73333333D01*
G04 #@! TO.C,SCL / SDA*
X122119047Y-70904761D02*
X122261904Y-70952380D01*
X122500000Y-70952380D01*
X122595238Y-70904761D01*
X122642857Y-70857142D01*
X122690476Y-70761904D01*
X122690476Y-70666666D01*
X122642857Y-70571428D01*
X122595238Y-70523809D01*
X122500000Y-70476190D01*
X122309523Y-70428571D01*
X122214285Y-70380952D01*
X122166666Y-70333333D01*
X122119047Y-70238095D01*
X122119047Y-70142857D01*
X122166666Y-70047619D01*
X122214285Y-70000000D01*
X122309523Y-69952380D01*
X122547619Y-69952380D01*
X122690476Y-70000000D01*
X123690476Y-70857142D02*
X123642857Y-70904761D01*
X123500000Y-70952380D01*
X123404761Y-70952380D01*
X123261904Y-70904761D01*
X123166666Y-70809523D01*
X123119047Y-70714285D01*
X123071428Y-70523809D01*
X123071428Y-70380952D01*
X123119047Y-70190476D01*
X123166666Y-70095238D01*
X123261904Y-70000000D01*
X123404761Y-69952380D01*
X123500000Y-69952380D01*
X123642857Y-70000000D01*
X123690476Y-70047619D01*
X124595238Y-70952380D02*
X124119047Y-70952380D01*
X124119047Y-69952380D01*
X126404761Y-69904761D02*
X125547619Y-71190476D01*
X127452380Y-70904761D02*
X127595238Y-70952380D01*
X127833333Y-70952380D01*
X127928571Y-70904761D01*
X127976190Y-70857142D01*
X128023809Y-70761904D01*
X128023809Y-70666666D01*
X127976190Y-70571428D01*
X127928571Y-70523809D01*
X127833333Y-70476190D01*
X127642857Y-70428571D01*
X127547619Y-70380952D01*
X127500000Y-70333333D01*
X127452380Y-70238095D01*
X127452380Y-70142857D01*
X127500000Y-70047619D01*
X127547619Y-70000000D01*
X127642857Y-69952380D01*
X127880952Y-69952380D01*
X128023809Y-70000000D01*
X128452380Y-70952380D02*
X128452380Y-69952380D01*
X128690476Y-69952380D01*
X128833333Y-70000000D01*
X128928571Y-70095238D01*
X128976190Y-70190476D01*
X129023809Y-70380952D01*
X129023809Y-70523809D01*
X128976190Y-70714285D01*
X128928571Y-70809523D01*
X128833333Y-70904761D01*
X128690476Y-70952380D01*
X128452380Y-70952380D01*
X129404761Y-70666666D02*
X129880952Y-70666666D01*
X129309523Y-70952380D02*
X129642857Y-69952380D01*
X129976190Y-70952380D01*
G04 #@! TO.C,+5v / GND*
X110952380Y-70571428D02*
X111714285Y-70571428D01*
X111333333Y-70952380D02*
X111333333Y-70190476D01*
X112666666Y-69952380D02*
X112190476Y-69952380D01*
X112142857Y-70428571D01*
X112190476Y-70380952D01*
X112285714Y-70333333D01*
X112523809Y-70333333D01*
X112619047Y-70380952D01*
X112666666Y-70428571D01*
X112714285Y-70523809D01*
X112714285Y-70761904D01*
X112666666Y-70857142D01*
X112619047Y-70904761D01*
X112523809Y-70952380D01*
X112285714Y-70952380D01*
X112190476Y-70904761D01*
X112142857Y-70857142D01*
X113047619Y-70285714D02*
X113285714Y-70952380D01*
X113523809Y-70285714D01*
X115380952Y-69904761D02*
X114523809Y-71190476D01*
X117000000Y-70000000D02*
X116904761Y-69952380D01*
X116761904Y-69952380D01*
X116619047Y-70000000D01*
X116523809Y-70095238D01*
X116476190Y-70190476D01*
X116428571Y-70380952D01*
X116428571Y-70523809D01*
X116476190Y-70714285D01*
X116523809Y-70809523D01*
X116619047Y-70904761D01*
X116761904Y-70952380D01*
X116857142Y-70952380D01*
X117000000Y-70904761D01*
X117047619Y-70857142D01*
X117047619Y-70523809D01*
X116857142Y-70523809D01*
X117476190Y-70952380D02*
X117476190Y-69952380D01*
X118047619Y-70952380D01*
X118047619Y-69952380D01*
X118523809Y-70952380D02*
X118523809Y-69952380D01*
X118761904Y-69952380D01*
X118904761Y-70000000D01*
X119000000Y-70095238D01*
X119047619Y-70190476D01*
X119095238Y-70380952D01*
X119095238Y-70523809D01*
X119047619Y-70714285D01*
X119000000Y-70809523D01*
X118904761Y-70904761D01*
X118761904Y-70952380D01*
X118523809Y-70952380D01*
G04 #@! TO.C,+ 5v DC -*
X91071428Y-82500000D02*
X91071428Y-81738095D01*
X91452380Y-82119047D02*
X90690476Y-82119047D01*
X90452380Y-80023809D02*
X90452380Y-80500000D01*
X90928571Y-80547619D01*
X90880952Y-80500000D01*
X90833333Y-80404761D01*
X90833333Y-80166666D01*
X90880952Y-80071428D01*
X90928571Y-80023809D01*
X91023809Y-79976190D01*
X91261904Y-79976190D01*
X91357142Y-80023809D01*
X91404761Y-80071428D01*
X91452380Y-80166666D01*
X91452380Y-80404761D01*
X91404761Y-80500000D01*
X91357142Y-80547619D01*
X90785714Y-79642857D02*
X91452380Y-79404761D01*
X90785714Y-79166666D01*
X91452380Y-78023809D02*
X90452380Y-78023809D01*
X90452380Y-77785714D01*
X90500000Y-77642857D01*
X90595238Y-77547619D01*
X90690476Y-77500000D01*
X90880952Y-77452380D01*
X91023809Y-77452380D01*
X91214285Y-77500000D01*
X91309523Y-77547619D01*
X91404761Y-77642857D01*
X91452380Y-77785714D01*
X91452380Y-78023809D01*
X91357142Y-76452380D02*
X91404761Y-76500000D01*
X91452380Y-76642857D01*
X91452380Y-76738095D01*
X91404761Y-76880952D01*
X91309523Y-76976190D01*
X91214285Y-77023809D01*
X91023809Y-77071428D01*
X90880952Y-77071428D01*
X90690476Y-77023809D01*
X90595238Y-76976190D01*
X90500000Y-76880952D01*
X90452380Y-76738095D01*
X90452380Y-76642857D01*
X90500000Y-76500000D01*
X90547619Y-76452380D01*
X91071428Y-75261904D02*
X91071428Y-74500000D01*
G04 #@! TO.C,AC 5v*
X91166666Y-91976190D02*
X91166666Y-91500000D01*
X91452380Y-92071428D02*
X90452380Y-91738095D01*
X91452380Y-91404761D01*
X91357142Y-90500000D02*
X91404761Y-90547619D01*
X91452380Y-90690476D01*
X91452380Y-90785714D01*
X91404761Y-90928571D01*
X91309523Y-91023809D01*
X91214285Y-91071428D01*
X91023809Y-91119047D01*
X90880952Y-91119047D01*
X90690476Y-91071428D01*
X90595238Y-91023809D01*
X90500000Y-90928571D01*
X90452380Y-90785714D01*
X90452380Y-90690476D01*
X90500000Y-90547619D01*
X90547619Y-90500000D01*
X90452380Y-88833333D02*
X90452380Y-89309523D01*
X90928571Y-89357142D01*
X90880952Y-89309523D01*
X90833333Y-89214285D01*
X90833333Y-88976190D01*
X90880952Y-88880952D01*
X90928571Y-88833333D01*
X91023809Y-88785714D01*
X91261904Y-88785714D01*
X91357142Y-88833333D01*
X91404761Y-88880952D01*
X91452380Y-88976190D01*
X91452380Y-89214285D01*
X91404761Y-89309523D01*
X91357142Y-89357142D01*
X90785714Y-88452380D02*
X91452380Y-88214285D01*
X90785714Y-87976190D01*
G04 #@! TO.C,100K*
X126452380Y-90586666D02*
X126452380Y-91158095D01*
X126452380Y-90872380D02*
X125452380Y-90872380D01*
X125595238Y-90967619D01*
X125690476Y-91062857D01*
X125738095Y-91158095D01*
X125452380Y-89967619D02*
X125452380Y-89872380D01*
X125500000Y-89777142D01*
X125547619Y-89729523D01*
X125642857Y-89681904D01*
X125833333Y-89634285D01*
X126071428Y-89634285D01*
X126261904Y-89681904D01*
X126357142Y-89729523D01*
X126404761Y-89777142D01*
X126452380Y-89872380D01*
X126452380Y-89967619D01*
X126404761Y-90062857D01*
X126357142Y-90110476D01*
X126261904Y-90158095D01*
X126071428Y-90205714D01*
X125833333Y-90205714D01*
X125642857Y-90158095D01*
X125547619Y-90110476D01*
X125500000Y-90062857D01*
X125452380Y-89967619D01*
X125452380Y-89015238D02*
X125452380Y-88920000D01*
X125500000Y-88824761D01*
X125547619Y-88777142D01*
X125642857Y-88729523D01*
X125833333Y-88681904D01*
X126071428Y-88681904D01*
X126261904Y-88729523D01*
X126357142Y-88777142D01*
X126404761Y-88824761D01*
X126452380Y-88920000D01*
X126452380Y-89015238D01*
X126404761Y-89110476D01*
X126357142Y-89158095D01*
X126261904Y-89205714D01*
X126071428Y-89253333D01*
X125833333Y-89253333D01*
X125642857Y-89205714D01*
X125547619Y-89158095D01*
X125500000Y-89110476D01*
X125452380Y-89015238D01*
X126452380Y-88253333D02*
X125452380Y-88253333D01*
X126452380Y-87681904D02*
X125880952Y-88110476D01*
X125452380Y-87681904D02*
X126023809Y-88253333D01*
G04 #@! TO.C,SCT013-30A/1v*
X142404761Y-96476190D02*
X142452380Y-96333333D01*
X142452380Y-96095238D01*
X142404761Y-96000000D01*
X142357142Y-95952380D01*
X142261904Y-95904761D01*
X142166666Y-95904761D01*
X142071428Y-95952380D01*
X142023809Y-96000000D01*
X141976190Y-96095238D01*
X141928571Y-96285714D01*
X141880952Y-96380952D01*
X141833333Y-96428571D01*
X141738095Y-96476190D01*
X141642857Y-96476190D01*
X141547619Y-96428571D01*
X141500000Y-96380952D01*
X141452380Y-96285714D01*
X141452380Y-96047619D01*
X141500000Y-95904761D01*
X142357142Y-94904761D02*
X142404761Y-94952380D01*
X142452380Y-95095238D01*
X142452380Y-95190476D01*
X142404761Y-95333333D01*
X142309523Y-95428571D01*
X142214285Y-95476190D01*
X142023809Y-95523809D01*
X141880952Y-95523809D01*
X141690476Y-95476190D01*
X141595238Y-95428571D01*
X141500000Y-95333333D01*
X141452380Y-95190476D01*
X141452380Y-95095238D01*
X141500000Y-94952380D01*
X141547619Y-94904761D01*
X141452380Y-94619047D02*
X141452380Y-94047619D01*
X142452380Y-94333333D02*
X141452380Y-94333333D01*
X141452380Y-93523809D02*
X141452380Y-93428571D01*
X141500000Y-93333333D01*
X141547619Y-93285714D01*
X141642857Y-93238095D01*
X141833333Y-93190476D01*
X142071428Y-93190476D01*
X142261904Y-93238095D01*
X142357142Y-93285714D01*
X142404761Y-93333333D01*
X142452380Y-93428571D01*
X142452380Y-93523809D01*
X142404761Y-93619047D01*
X142357142Y-93666666D01*
X142261904Y-93714285D01*
X142071428Y-93761904D01*
X141833333Y-93761904D01*
X141642857Y-93714285D01*
X141547619Y-93666666D01*
X141500000Y-93619047D01*
X141452380Y-93523809D01*
X142452380Y-92238095D02*
X142452380Y-92809523D01*
X142452380Y-92523809D02*
X141452380Y-92523809D01*
X141595238Y-92619047D01*
X141690476Y-92714285D01*
X141738095Y-92809523D01*
X141452380Y-91904761D02*
X141452380Y-91285714D01*
X141833333Y-91619047D01*
X141833333Y-91476190D01*
X141880952Y-91380952D01*
X141928571Y-91333333D01*
X142023809Y-91285714D01*
X142261904Y-91285714D01*
X142357142Y-91333333D01*
X142404761Y-91380952D01*
X142452380Y-91476190D01*
X142452380Y-91761904D01*
X142404761Y-91857142D01*
X142357142Y-91904761D01*
X142071428Y-90857142D02*
X142071428Y-90095238D01*
X141452380Y-89714285D02*
X141452380Y-89095238D01*
X141833333Y-89428571D01*
X141833333Y-89285714D01*
X141880952Y-89190476D01*
X141928571Y-89142857D01*
X142023809Y-89095238D01*
X142261904Y-89095238D01*
X142357142Y-89142857D01*
X142404761Y-89190476D01*
X142452380Y-89285714D01*
X142452380Y-89571428D01*
X142404761Y-89666666D01*
X142357142Y-89714285D01*
X141452380Y-88476190D02*
X141452380Y-88380952D01*
X141500000Y-88285714D01*
X141547619Y-88238095D01*
X141642857Y-88190476D01*
X141833333Y-88142857D01*
X142071428Y-88142857D01*
X142261904Y-88190476D01*
X142357142Y-88238095D01*
X142404761Y-88285714D01*
X142452380Y-88380952D01*
X142452380Y-88476190D01*
X142404761Y-88571428D01*
X142357142Y-88619047D01*
X142261904Y-88666666D01*
X142071428Y-88714285D01*
X141833333Y-88714285D01*
X141642857Y-88666666D01*
X141547619Y-88619047D01*
X141500000Y-88571428D01*
X141452380Y-88476190D01*
X142166666Y-87761904D02*
X142166666Y-87285714D01*
X142452380Y-87857142D02*
X141452380Y-87523809D01*
X142452380Y-87190476D01*
X141404761Y-86142857D02*
X142690476Y-87000000D01*
X142452380Y-85285714D02*
X142452380Y-85857142D01*
X142452380Y-85571428D02*
X141452380Y-85571428D01*
X141595238Y-85666666D01*
X141690476Y-85761904D01*
X141738095Y-85857142D01*
X141785714Y-84952380D02*
X142452380Y-84714285D01*
X141785714Y-84476190D01*
G04 #@! TO.C,4\002C7uF*
X117095238Y-96285714D02*
X117095238Y-96952380D01*
X116857142Y-95904761D02*
X116619047Y-96619047D01*
X117238095Y-96619047D01*
X117666666Y-96904761D02*
X117666666Y-96952380D01*
X117619047Y-97047619D01*
X117571428Y-97095238D01*
X118000000Y-95952380D02*
X118666666Y-95952380D01*
X118238095Y-96952380D01*
X119476190Y-96285714D02*
X119476190Y-96952380D01*
X119047619Y-96285714D02*
X119047619Y-96809523D01*
X119095238Y-96904761D01*
X119190476Y-96952380D01*
X119333333Y-96952380D01*
X119428571Y-96904761D01*
X119476190Y-96857142D01*
X120285714Y-96428571D02*
X119952380Y-96428571D01*
X119952380Y-96952380D02*
X119952380Y-95952380D01*
X120428571Y-95952380D01*
G04 #@! TO.C,100K*
X130375393Y-90586666D02*
X130375393Y-91158095D01*
X130375393Y-90872380D02*
X129375393Y-90872380D01*
X129518251Y-90967619D01*
X129613489Y-91062857D01*
X129661108Y-91158095D01*
X129375393Y-89967619D02*
X129375393Y-89872380D01*
X129423013Y-89777142D01*
X129470632Y-89729523D01*
X129565870Y-89681904D01*
X129756346Y-89634285D01*
X129994441Y-89634285D01*
X130184917Y-89681904D01*
X130280155Y-89729523D01*
X130327774Y-89777142D01*
X130375393Y-89872380D01*
X130375393Y-89967619D01*
X130327774Y-90062857D01*
X130280155Y-90110476D01*
X130184917Y-90158095D01*
X129994441Y-90205714D01*
X129756346Y-90205714D01*
X129565870Y-90158095D01*
X129470632Y-90110476D01*
X129423013Y-90062857D01*
X129375393Y-89967619D01*
X129375393Y-89015238D02*
X129375393Y-88920000D01*
X129423013Y-88824761D01*
X129470632Y-88777142D01*
X129565870Y-88729523D01*
X129756346Y-88681904D01*
X129994441Y-88681904D01*
X130184917Y-88729523D01*
X130280155Y-88777142D01*
X130327774Y-88824761D01*
X130375393Y-88920000D01*
X130375393Y-89015238D01*
X130327774Y-89110476D01*
X130280155Y-89158095D01*
X130184917Y-89205714D01*
X129994441Y-89253333D01*
X129756346Y-89253333D01*
X129565870Y-89205714D01*
X129470632Y-89158095D01*
X129423013Y-89110476D01*
X129375393Y-89015238D01*
X130375393Y-88253333D02*
X129375393Y-88253333D01*
X130375393Y-87681904D02*
X129803965Y-88110476D01*
X129375393Y-87681904D02*
X129946822Y-88253333D01*
G04 #@! TO.C,R/T*
X103029367Y-90175238D02*
X102553177Y-90508571D01*
X103029367Y-90746666D02*
X102029367Y-90746666D01*
X102029367Y-90365714D01*
X102076987Y-90270476D01*
X102124606Y-90222857D01*
X102219844Y-90175238D01*
X102362701Y-90175238D01*
X102457939Y-90222857D01*
X102505558Y-90270476D01*
X102553177Y-90365714D01*
X102553177Y-90746666D01*
X101981748Y-89032380D02*
X103267463Y-89889523D01*
X102029367Y-88841904D02*
X102029367Y-88270476D01*
X103029367Y-88556190D02*
X102029367Y-88556190D01*
X106952380Y-90175238D02*
X106476190Y-90508571D01*
X106952380Y-90746666D02*
X105952380Y-90746666D01*
X105952380Y-90365714D01*
X106000000Y-90270476D01*
X106047619Y-90222857D01*
X106142857Y-90175238D01*
X106285714Y-90175238D01*
X106380952Y-90222857D01*
X106428571Y-90270476D01*
X106476190Y-90365714D01*
X106476190Y-90746666D01*
X105904761Y-89032380D02*
X107190476Y-89889523D01*
X105952380Y-88841904D02*
X105952380Y-88270476D01*
X106952380Y-88556190D02*
X105952380Y-88556190D01*
G04 #@! TO.C,100K*
X114952380Y-90746666D02*
X114952380Y-91318095D01*
X114952380Y-91032380D02*
X113952380Y-91032380D01*
X114095238Y-91127619D01*
X114190476Y-91222857D01*
X114238095Y-91318095D01*
X113952380Y-90127619D02*
X113952380Y-90032380D01*
X114000000Y-89937142D01*
X114047619Y-89889523D01*
X114142857Y-89841904D01*
X114333333Y-89794285D01*
X114571428Y-89794285D01*
X114761904Y-89841904D01*
X114857142Y-89889523D01*
X114904761Y-89937142D01*
X114952380Y-90032380D01*
X114952380Y-90127619D01*
X114904761Y-90222857D01*
X114857142Y-90270476D01*
X114761904Y-90318095D01*
X114571428Y-90365714D01*
X114333333Y-90365714D01*
X114142857Y-90318095D01*
X114047619Y-90270476D01*
X114000000Y-90222857D01*
X113952380Y-90127619D01*
X113952380Y-89175238D02*
X113952380Y-89080000D01*
X114000000Y-88984761D01*
X114047619Y-88937142D01*
X114142857Y-88889523D01*
X114333333Y-88841904D01*
X114571428Y-88841904D01*
X114761904Y-88889523D01*
X114857142Y-88937142D01*
X114904761Y-88984761D01*
X114952380Y-89080000D01*
X114952380Y-89175238D01*
X114904761Y-89270476D01*
X114857142Y-89318095D01*
X114761904Y-89365714D01*
X114571428Y-89413333D01*
X114333333Y-89413333D01*
X114142857Y-89365714D01*
X114047619Y-89318095D01*
X114000000Y-89270476D01*
X113952380Y-89175238D01*
X114952380Y-88413333D02*
X113952380Y-88413333D01*
X114952380Y-87841904D02*
X114380952Y-88270476D01*
X113952380Y-87841904D02*
X114523809Y-88413333D01*
G04 #@! TO.C,4\002C7uF*
X121095238Y-82285714D02*
X121095238Y-82952380D01*
X120857142Y-81904761D02*
X120619047Y-82619047D01*
X121238095Y-82619047D01*
X121666666Y-82904761D02*
X121666666Y-82952380D01*
X121619047Y-83047619D01*
X121571428Y-83095238D01*
X122000000Y-81952380D02*
X122666666Y-81952380D01*
X122238095Y-82952380D01*
X123476190Y-82285714D02*
X123476190Y-82952380D01*
X123047619Y-82285714D02*
X123047619Y-82809523D01*
X123095238Y-82904761D01*
X123190476Y-82952380D01*
X123333333Y-82952380D01*
X123428571Y-82904761D01*
X123476190Y-82857142D01*
X124285714Y-82428571D02*
X123952380Y-82428571D01*
X123952380Y-82952380D02*
X123952380Y-81952380D01*
X124428571Y-81952380D01*
G04 #@! TO.C,100K*
X111029367Y-90746666D02*
X111029367Y-91318095D01*
X111029367Y-91032380D02*
X110029367Y-91032380D01*
X110172225Y-91127619D01*
X110267463Y-91222857D01*
X110315082Y-91318095D01*
X110029367Y-90127619D02*
X110029367Y-90032380D01*
X110076987Y-89937142D01*
X110124606Y-89889523D01*
X110219844Y-89841904D01*
X110410320Y-89794285D01*
X110648415Y-89794285D01*
X110838891Y-89841904D01*
X110934129Y-89889523D01*
X110981748Y-89937142D01*
X111029367Y-90032380D01*
X111029367Y-90127619D01*
X110981748Y-90222857D01*
X110934129Y-90270476D01*
X110838891Y-90318095D01*
X110648415Y-90365714D01*
X110410320Y-90365714D01*
X110219844Y-90318095D01*
X110124606Y-90270476D01*
X110076987Y-90222857D01*
X110029367Y-90127619D01*
X110029367Y-89175238D02*
X110029367Y-89080000D01*
X110076987Y-88984761D01*
X110124606Y-88937142D01*
X110219844Y-88889523D01*
X110410320Y-88841904D01*
X110648415Y-88841904D01*
X110838891Y-88889523D01*
X110934129Y-88937142D01*
X110981748Y-88984761D01*
X111029367Y-89080000D01*
X111029367Y-89175238D01*
X110981748Y-89270476D01*
X110934129Y-89318095D01*
X110838891Y-89365714D01*
X110648415Y-89413333D01*
X110410320Y-89413333D01*
X110219844Y-89365714D01*
X110124606Y-89318095D01*
X110076987Y-89270476D01*
X110029367Y-89175238D01*
X111029367Y-88413333D02*
X110029367Y-88413333D01*
X111029367Y-87841904D02*
X110457939Y-88270476D01*
X110029367Y-87841904D02*
X110600796Y-88413333D01*
G04 #@! TO.C,*
X134124606Y-302219414D02*
X133791272Y-301743224D01*
X133553177Y-302219414D02*
X133553177Y-301219414D01*
X133934129Y-301219414D01*
X134029367Y-301267034D01*
X134076987Y-301314653D01*
X134124606Y-301409891D01*
X134124606Y-301552748D01*
X134076987Y-301647986D01*
X134029367Y-301695605D01*
X133934129Y-301743224D01*
X133553177Y-301743224D01*
X135267463Y-301171795D02*
X134410320Y-302457510D01*
X135457939Y-301219414D02*
X136029367Y-301219414D01*
X135743653Y-302219414D02*
X135743653Y-301219414D01*
X136362701Y-302219414D02*
X136362701Y-301552748D01*
X136362701Y-301743224D02*
X136410320Y-301647986D01*
X136457939Y-301600367D01*
X136553177Y-301552748D01*
X136648415Y-301552748D01*
X137410320Y-302219414D02*
X137410320Y-301695605D01*
X137362701Y-301600367D01*
X137267463Y-301552748D01*
X137076987Y-301552748D01*
X136981748Y-301600367D01*
X137410320Y-302171795D02*
X137315082Y-302219414D01*
X137076987Y-302219414D01*
X136981748Y-302171795D01*
X136934129Y-302076557D01*
X136934129Y-301981319D01*
X136981748Y-301886081D01*
X137076987Y-301838462D01*
X137315082Y-301838462D01*
X137410320Y-301790843D01*
X137886510Y-301552748D02*
X137886510Y-302219414D01*
X137886510Y-301647986D02*
X137934129Y-301600367D01*
X138029367Y-301552748D01*
X138172225Y-301552748D01*
X138267463Y-301600367D01*
X138315082Y-301695605D01*
X138315082Y-302219414D01*
X138743653Y-302171795D02*
X138838891Y-302219414D01*
X139029367Y-302219414D01*
X139124606Y-302171795D01*
X139172225Y-302076557D01*
X139172225Y-302028938D01*
X139124606Y-301933700D01*
X139029367Y-301886081D01*
X138886510Y-301886081D01*
X138791272Y-301838462D01*
X138743653Y-301743224D01*
X138743653Y-301695605D01*
X138791272Y-301600367D01*
X138886510Y-301552748D01*
X139029367Y-301552748D01*
X139124606Y-301600367D01*
X139457939Y-301552748D02*
X139838891Y-301552748D01*
X139600796Y-302219414D02*
X139600796Y-301362272D01*
X139648415Y-301267034D01*
X139743653Y-301219414D01*
X139838891Y-301219414D01*
X140315082Y-302219414D02*
X140219844Y-302171795D01*
X140172225Y-302124176D01*
X140124606Y-302028938D01*
X140124606Y-301743224D01*
X140172225Y-301647986D01*
X140219844Y-301600367D01*
X140315082Y-301552748D01*
X140457939Y-301552748D01*
X140553177Y-301600367D01*
X140600796Y-301647986D01*
X140648415Y-301743224D01*
X140648415Y-302028938D01*
X140600796Y-302124176D01*
X140553177Y-302171795D01*
X140457939Y-302219414D01*
X140315082Y-302219414D01*
X107624606Y-302719414D02*
X107291272Y-302243224D01*
X107053177Y-302719414D02*
X107053177Y-301719414D01*
X107434129Y-301719414D01*
X107529367Y-301767034D01*
X107576987Y-301814653D01*
X107624606Y-301909891D01*
X107624606Y-302052748D01*
X107576987Y-302147986D01*
X107529367Y-302195605D01*
X107434129Y-302243224D01*
X107053177Y-302243224D01*
X108767463Y-301671795D02*
X107910320Y-302957510D01*
X108957939Y-301719414D02*
X109529367Y-301719414D01*
X109243653Y-302719414D02*
X109243653Y-301719414D01*
X109862701Y-302719414D02*
X109862701Y-302052748D01*
X109862701Y-302243224D02*
X109910320Y-302147986D01*
X109957939Y-302100367D01*
X110053177Y-302052748D01*
X110148415Y-302052748D01*
X110910320Y-302719414D02*
X110910320Y-302195605D01*
X110862701Y-302100367D01*
X110767463Y-302052748D01*
X110576987Y-302052748D01*
X110481748Y-302100367D01*
X110910320Y-302671795D02*
X110815082Y-302719414D01*
X110576987Y-302719414D01*
X110481748Y-302671795D01*
X110434129Y-302576557D01*
X110434129Y-302481319D01*
X110481748Y-302386081D01*
X110576987Y-302338462D01*
X110815082Y-302338462D01*
X110910320Y-302290843D01*
X111386510Y-302052748D02*
X111386510Y-302719414D01*
X111386510Y-302147986D02*
X111434129Y-302100367D01*
X111529367Y-302052748D01*
X111672225Y-302052748D01*
X111767463Y-302100367D01*
X111815082Y-302195605D01*
X111815082Y-302719414D01*
X112243653Y-302671795D02*
X112338891Y-302719414D01*
X112529367Y-302719414D01*
X112624606Y-302671795D01*
X112672225Y-302576557D01*
X112672225Y-302528938D01*
X112624606Y-302433700D01*
X112529367Y-302386081D01*
X112386510Y-302386081D01*
X112291272Y-302338462D01*
X112243653Y-302243224D01*
X112243653Y-302195605D01*
X112291272Y-302100367D01*
X112386510Y-302052748D01*
X112529367Y-302052748D01*
X112624606Y-302100367D01*
X112957939Y-302052748D02*
X113338891Y-302052748D01*
X113100796Y-302719414D02*
X113100796Y-301862272D01*
X113148415Y-301767034D01*
X113243653Y-301719414D01*
X113338891Y-301719414D01*
X113815082Y-302719414D02*
X113719844Y-302671795D01*
X113672225Y-302624176D01*
X113624606Y-302528938D01*
X113624606Y-302243224D01*
X113672225Y-302147986D01*
X113719844Y-302100367D01*
X113815082Y-302052748D01*
X113957939Y-302052748D01*
X114053177Y-302100367D01*
X114100796Y-302147986D01*
X114148415Y-302243224D01*
X114148415Y-302528938D01*
X114100796Y-302624176D01*
X114053177Y-302671795D01*
X113957939Y-302719414D01*
X113815082Y-302719414D01*
X142124606Y-268219414D02*
X141791272Y-267743224D01*
X141553177Y-268219414D02*
X141553177Y-267219414D01*
X141934129Y-267219414D01*
X142029367Y-267267034D01*
X142076987Y-267314653D01*
X142124606Y-267409891D01*
X142124606Y-267552748D01*
X142076987Y-267647986D01*
X142029367Y-267695605D01*
X141934129Y-267743224D01*
X141553177Y-267743224D01*
X143267463Y-267171795D02*
X142410320Y-268457510D01*
X143457939Y-267219414D02*
X144029367Y-267219414D01*
X143743653Y-268219414D02*
X143743653Y-267219414D01*
X144362701Y-268219414D02*
X144362701Y-267552748D01*
X144362701Y-267743224D02*
X144410320Y-267647986D01*
X144457939Y-267600367D01*
X144553177Y-267552748D01*
X144648415Y-267552748D01*
X145410320Y-268219414D02*
X145410320Y-267695605D01*
X145362701Y-267600367D01*
X145267463Y-267552748D01*
X145076987Y-267552748D01*
X144981748Y-267600367D01*
X145410320Y-268171795D02*
X145315082Y-268219414D01*
X145076987Y-268219414D01*
X144981748Y-268171795D01*
X144934129Y-268076557D01*
X144934129Y-267981319D01*
X144981748Y-267886081D01*
X145076987Y-267838462D01*
X145315082Y-267838462D01*
X145410320Y-267790843D01*
X145886510Y-267552748D02*
X145886510Y-268219414D01*
X145886510Y-267647986D02*
X145934129Y-267600367D01*
X146029367Y-267552748D01*
X146172225Y-267552748D01*
X146267463Y-267600367D01*
X146315082Y-267695605D01*
X146315082Y-268219414D01*
X146743653Y-268171795D02*
X146838891Y-268219414D01*
X147029367Y-268219414D01*
X147124606Y-268171795D01*
X147172225Y-268076557D01*
X147172225Y-268028938D01*
X147124606Y-267933700D01*
X147029367Y-267886081D01*
X146886510Y-267886081D01*
X146791272Y-267838462D01*
X146743653Y-267743224D01*
X146743653Y-267695605D01*
X146791272Y-267600367D01*
X146886510Y-267552748D01*
X147029367Y-267552748D01*
X147124606Y-267600367D01*
X147457939Y-267552748D02*
X147838891Y-267552748D01*
X147600796Y-268219414D02*
X147600796Y-267362272D01*
X147648415Y-267267034D01*
X147743653Y-267219414D01*
X147838891Y-267219414D01*
X148315082Y-268219414D02*
X148219844Y-268171795D01*
X148172225Y-268124176D01*
X148124606Y-268028938D01*
X148124606Y-267743224D01*
X148172225Y-267647986D01*
X148219844Y-267600367D01*
X148315082Y-267552748D01*
X148457939Y-267552748D01*
X148553177Y-267600367D01*
X148600796Y-267647986D01*
X148648415Y-267743224D01*
X148648415Y-268028938D01*
X148600796Y-268124176D01*
X148553177Y-268171795D01*
X148457939Y-268219414D01*
X148315082Y-268219414D01*
G04 #@! TO.C,Arduino NANO*
X112023809Y-109166666D02*
X112500000Y-109166666D01*
X111928571Y-109452380D02*
X112261904Y-108452380D01*
X112595238Y-109452380D01*
X112928571Y-109452380D02*
X112928571Y-108785714D01*
X112928571Y-108976190D02*
X112976190Y-108880952D01*
X113023809Y-108833333D01*
X113119047Y-108785714D01*
X113214285Y-108785714D01*
X113976190Y-109452380D02*
X113976190Y-108452380D01*
X113976190Y-109404761D02*
X113880952Y-109452380D01*
X113690476Y-109452380D01*
X113595238Y-109404761D01*
X113547619Y-109357142D01*
X113500000Y-109261904D01*
X113500000Y-108976190D01*
X113547619Y-108880952D01*
X113595238Y-108833333D01*
X113690476Y-108785714D01*
X113880952Y-108785714D01*
X113976190Y-108833333D01*
X114880952Y-108785714D02*
X114880952Y-109452380D01*
X114452380Y-108785714D02*
X114452380Y-109309523D01*
X114500000Y-109404761D01*
X114595238Y-109452380D01*
X114738095Y-109452380D01*
X114833333Y-109404761D01*
X114880952Y-109357142D01*
X115357142Y-109452380D02*
X115357142Y-108785714D01*
X115357142Y-108452380D02*
X115309523Y-108500000D01*
X115357142Y-108547619D01*
X115404761Y-108500000D01*
X115357142Y-108452380D01*
X115357142Y-108547619D01*
X115833333Y-108785714D02*
X115833333Y-109452380D01*
X115833333Y-108880952D02*
X115880952Y-108833333D01*
X115976190Y-108785714D01*
X116119047Y-108785714D01*
X116214285Y-108833333D01*
X116261904Y-108928571D01*
X116261904Y-109452380D01*
X116880952Y-109452380D02*
X116785714Y-109404761D01*
X116738095Y-109357142D01*
X116690476Y-109261904D01*
X116690476Y-108976190D01*
X116738095Y-108880952D01*
X116785714Y-108833333D01*
X116880952Y-108785714D01*
X117023809Y-108785714D01*
X117119047Y-108833333D01*
X117166666Y-108880952D01*
X117214285Y-108976190D01*
X117214285Y-109261904D01*
X117166666Y-109357142D01*
X117119047Y-109404761D01*
X117023809Y-109452380D01*
X116880952Y-109452380D01*
X118404761Y-109452380D02*
X118404761Y-108452380D01*
X118976190Y-109452380D01*
X118976190Y-108452380D01*
X119404761Y-109166666D02*
X119880952Y-109166666D01*
X119309523Y-109452380D02*
X119642857Y-108452380D01*
X119976190Y-109452380D01*
X120309523Y-109452380D02*
X120309523Y-108452380D01*
X120880952Y-109452380D01*
X120880952Y-108452380D01*
X121547619Y-108452380D02*
X121738095Y-108452380D01*
X121833333Y-108500000D01*
X121928571Y-108595238D01*
X121976190Y-108785714D01*
X121976190Y-109119047D01*
X121928571Y-109309523D01*
X121833333Y-109404761D01*
X121738095Y-109452380D01*
X121547619Y-109452380D01*
X121452380Y-109404761D01*
X121357142Y-109309523D01*
X121309523Y-109119047D01*
X121309523Y-108785714D01*
X121357142Y-108595238D01*
X121452380Y-108500000D01*
X121547619Y-108452380D01*
G04 #@! TO.C,*
G04 #@! TD*
M02*
