G04 #@! TF.GenerationSoftware,KiCad,Pcbnew,5.0.2+dfsg1-1+deb10u1*
G04 #@! TF.CreationDate,2023-11-15T00:44:58+01:00*
G04 #@! TF.ProjectId,Carte basse tension,43617274-6520-4626-9173-73652074656e,rev?*
G04 #@! TF.SameCoordinates,Original*
G04 #@! TF.FileFunction,Copper,L1,Top*
G04 #@! TF.FilePolarity,Positive*
%FSLAX46Y46*%
G04 Gerber Fmt 4.6, Leading zero omitted, Abs format (unit mm)*
G04 Created by KiCad (PCBNEW 5.0.2+dfsg1-1+deb10u1) date mer. 15 nov. 2023 00:44:58 CET*
%MOMM*%
%LPD*%
G01*
G04 APERTURE LIST*
G04 #@! TA.AperFunction,ComponentPad*
%ADD10C,3.000000*%
G04 #@! TD*
G04 #@! TA.AperFunction,ComponentPad*
%ADD11R,3.000000X3.000000*%
G04 #@! TD*
G04 #@! TA.AperFunction,ComponentPad*
%ADD12C,1.600000*%
G04 #@! TD*
G04 #@! TA.AperFunction,ComponentPad*
%ADD13O,1.600000X1.600000*%
G04 #@! TD*
G04 #@! TA.AperFunction,ComponentPad*
%ADD14R,1.600000X1.600000*%
G04 #@! TD*
G04 #@! TA.AperFunction,Conductor*
%ADD15C,0.750000*%
G04 #@! TD*
G04 #@! TA.AperFunction,Conductor*
%ADD16C,0.500000*%
G04 #@! TD*
G04 APERTURE END LIST*
D10*
G04 #@! TO.P,9PWM / GND,2*
G04 #@! TO.N,N/C*
X136500000Y-74920000D03*
D11*
G04 #@! TO.P,9PWM / GND,1*
X136500000Y-80000000D03*
G04 #@! TD*
G04 #@! TO.P,SCL / SDA,1*
G04 #@! TO.N,N/C*
X128500000Y-76000000D03*
D10*
G04 #@! TO.P,SCL / SDA,2*
X123420000Y-76000000D03*
G04 #@! TD*
G04 #@! TO.P,+5v / GND,2*
G04 #@! TO.N,N/C*
X112420000Y-76000000D03*
D11*
G04 #@! TO.P,+5v / GND,1*
X117500000Y-76000000D03*
G04 #@! TD*
G04 #@! TO.P,+ 5v DC -,1*
G04 #@! TO.N,N/C*
X96500000Y-76000000D03*
D10*
G04 #@! TO.P,+ 5v DC -,2*
X96500000Y-81080000D03*
G04 #@! TD*
G04 #@! TO.P,AC 5v,2*
G04 #@! TO.N,N/C*
X96500000Y-92580000D03*
D11*
G04 #@! TO.P,AC 5v,1*
X96500000Y-87500000D03*
G04 #@! TD*
D12*
G04 #@! TO.P,100K,1*
G04 #@! TO.N,N/C*
X126000000Y-94500000D03*
D13*
G04 #@! TO.P,100K,2*
X126000000Y-84340000D03*
G04 #@! TD*
D11*
G04 #@! TO.P,SCT013-30A/1v,1*
G04 #@! TO.N,N/C*
X136500000Y-92000000D03*
D10*
G04 #@! TO.P,SCT013-30A/1v,2*
X136500000Y-86920000D03*
G04 #@! TD*
D14*
G04 #@! TO.P,4\002C7uF,1*
G04 #@! TO.N,N/C*
X121500000Y-92000000D03*
D12*
G04 #@! TO.P,4\002C7uF,2*
X121500000Y-94500000D03*
G04 #@! TD*
G04 #@! TO.P,100K,1*
G04 #@! TO.N,N/C*
X129923013Y-94500000D03*
D13*
G04 #@! TO.P,100K,2*
X129923013Y-84340000D03*
G04 #@! TD*
G04 #@! TO.P,R/T,2*
G04 #@! TO.N,N/C*
X102576987Y-94660000D03*
D12*
G04 #@! TO.P,R/T,1*
X102576987Y-84500000D03*
G04 #@! TD*
D13*
G04 #@! TO.P,R/T,2*
G04 #@! TO.N,N/C*
X106500000Y-94660000D03*
D12*
G04 #@! TO.P,R/T,1*
X106500000Y-84500000D03*
G04 #@! TD*
G04 #@! TO.P,100K,1*
G04 #@! TO.N,N/C*
X114500000Y-84500000D03*
D13*
G04 #@! TO.P,100K,2*
X114500000Y-94660000D03*
G04 #@! TD*
D14*
G04 #@! TO.P,4\002C7uF,1*
G04 #@! TO.N,N/C*
X119000000Y-87000000D03*
D12*
G04 #@! TO.P,4\002C7uF,2*
X119000000Y-84500000D03*
G04 #@! TD*
G04 #@! TO.P,100K,1*
G04 #@! TO.N,N/C*
X110576987Y-84500000D03*
D13*
G04 #@! TO.P,100K,2*
X110576987Y-94660000D03*
G04 #@! TD*
G04 #@! TO.P,Arduino NANO,16*
G04 #@! TO.N,N/C*
X99521956Y-116292967D03*
G04 #@! TO.P,Arduino NANO,15*
X99521956Y-101052967D03*
G04 #@! TO.P,Arduino NANO,30*
X135081956Y-116292967D03*
G04 #@! TO.P,Arduino NANO,14*
X102061956Y-101052967D03*
G04 #@! TO.P,Arduino NANO,29*
X132541956Y-116292967D03*
G04 #@! TO.P,Arduino NANO,13*
X104601956Y-101052967D03*
G04 #@! TO.P,Arduino NANO,28*
X130001956Y-116292967D03*
G04 #@! TO.P,Arduino NANO,12*
X107141956Y-101052967D03*
G04 #@! TO.P,Arduino NANO,27*
X127461956Y-116292967D03*
G04 #@! TO.P,Arduino NANO,11*
X109681956Y-101052967D03*
G04 #@! TO.P,Arduino NANO,26*
X124921956Y-116292967D03*
G04 #@! TO.P,Arduino NANO,10*
X112221956Y-101052967D03*
G04 #@! TO.P,Arduino NANO,25*
X122381956Y-116292967D03*
G04 #@! TO.P,Arduino NANO,9*
X114761956Y-101052967D03*
G04 #@! TO.P,Arduino NANO,24*
X119841956Y-116292967D03*
G04 #@! TO.P,Arduino NANO,8*
X117301956Y-101052967D03*
G04 #@! TO.P,Arduino NANO,23*
X117301956Y-116292967D03*
G04 #@! TO.P,Arduino NANO,7*
X119841956Y-101052967D03*
G04 #@! TO.P,Arduino NANO,22*
X114761956Y-116292967D03*
G04 #@! TO.P,Arduino NANO,6*
X122381956Y-101052967D03*
G04 #@! TO.P,Arduino NANO,21*
X112221956Y-116292967D03*
G04 #@! TO.P,Arduino NANO,5*
X124921956Y-101052967D03*
G04 #@! TO.P,Arduino NANO,20*
X109681956Y-116292967D03*
G04 #@! TO.P,Arduino NANO,4*
X127461956Y-101052967D03*
G04 #@! TO.P,Arduino NANO,19*
X107141956Y-116292967D03*
G04 #@! TO.P,Arduino NANO,3*
X130001956Y-101052967D03*
G04 #@! TO.P,Arduino NANO,18*
X104601956Y-116292967D03*
G04 #@! TO.P,Arduino NANO,2*
X132541956Y-101052967D03*
G04 #@! TO.P,Arduino NANO,17*
X102061956Y-116292967D03*
D14*
G04 #@! TO.P,Arduino NANO,1*
X135081956Y-101052967D03*
G04 #@! TD*
D15*
G04 #@! TO.N,*
X124923013Y-89500000D02*
X129923013Y-94500000D01*
X115576987Y-89500000D02*
X124923013Y-89500000D01*
X110576987Y-84500000D02*
X115576987Y-89500000D01*
D16*
X121000000Y-98000000D02*
X122381956Y-99381956D01*
X122381956Y-99381956D02*
X122381956Y-101052967D01*
X104500000Y-96500000D02*
X106000000Y-98000000D01*
X106000000Y-98000000D02*
X121000000Y-98000000D01*
X104500000Y-86500000D02*
X104500000Y-96500000D01*
X106500000Y-84500000D02*
X104500000Y-86500000D01*
X136500000Y-94500000D02*
X136500000Y-92000000D01*
X133000000Y-98000000D02*
X136500000Y-94500000D01*
X126000000Y-98000000D02*
X133000000Y-98000000D01*
X124921956Y-101052967D02*
X124921956Y-99078044D01*
X124921956Y-99078044D02*
X126000000Y-98000000D01*
D15*
X114500000Y-84500000D02*
X117500000Y-81500000D01*
X117500000Y-81500000D02*
X117500000Y-76000000D01*
X112420000Y-82656987D02*
X112420000Y-76000000D01*
X110576987Y-84500000D02*
X112420000Y-82656987D01*
D16*
X117301956Y-101052967D02*
X117301956Y-103301956D01*
X117301956Y-103301956D02*
X118500000Y-104500000D01*
X118500000Y-104500000D02*
X137500000Y-104500000D01*
X137500000Y-104500000D02*
X141000000Y-101000000D01*
X141000000Y-101000000D02*
X141000000Y-86000000D01*
X141000000Y-86000000D02*
X138500000Y-83500000D01*
X138500000Y-83500000D02*
X133000000Y-83500000D01*
X133000000Y-83500000D02*
X128500000Y-79000000D01*
X128500000Y-79000000D02*
X128500000Y-76000000D01*
X114761956Y-103261956D02*
X114761956Y-101052967D01*
X117500000Y-106000000D02*
X114761956Y-103261956D01*
X138000000Y-106000000D02*
X117500000Y-106000000D01*
X142000000Y-102000000D02*
X138000000Y-106000000D01*
X142000000Y-85500000D02*
X142000000Y-102000000D01*
X123420000Y-73878680D02*
X125298680Y-72000000D01*
X123420000Y-76000000D02*
X123420000Y-73878680D01*
X125298680Y-72000000D02*
X139000000Y-72000000D01*
X139000000Y-72000000D02*
X140500000Y-73500000D01*
X140500000Y-73500000D02*
X140500000Y-84000000D01*
X140500000Y-84000000D02*
X142000000Y-85500000D01*
G04 #@! TD*
M02*
