M48
;DRILL file {KiCad 5.0.2+dfsg1-1+deb10u1} date mer. 15 nov. 2023 00:45:50 CET
;FORMAT={-:-/ absolute / inch / decimal}
FMAT,2
INCH,TZ
T1C0.0315
T2C0.0598
%
G90
G05
T1
X4.1929Y-3.3268
X4.1929Y-3.7268
X4.685Y-3.3268
X4.685Y-3.4252
X5.1151Y-3.3205
X5.1151Y-3.7205
X4.9606Y-3.3205
X4.9606Y-3.7205
X4.7835Y-3.622
X4.7835Y-3.7205
X3.9182Y-3.9785
X3.9182Y-4.5785
X4.0182Y-3.9785
X4.0182Y-4.5785
X4.1182Y-3.9785
X4.1182Y-4.5785
X4.2182Y-3.9785
X4.2182Y-4.5785
X4.3182Y-3.9785
X4.3182Y-4.5785
X4.4182Y-3.9785
X4.4182Y-4.5785
X4.5182Y-3.9785
X4.5182Y-4.5785
X4.6182Y-3.9785
X4.6182Y-4.5785
X4.7182Y-3.9785
X4.7182Y-4.5785
X4.8182Y-3.9785
X4.8182Y-4.5785
X4.9182Y-3.9785
X4.9182Y-4.5785
X5.0182Y-3.9785
X5.0182Y-4.5785
X5.1182Y-3.9785
X5.1182Y-4.5785
X5.2182Y-3.9785
X5.2182Y-4.5785
X5.3182Y-3.9785
X5.3182Y-4.5785
X4.0385Y-3.3268
X4.0385Y-3.7268
X4.5079Y-3.3268
X4.5079Y-3.7268
X4.3534Y-3.3268
X4.3534Y-3.7268
T2
X3.7992Y-3.4449
X3.7992Y-3.6449
X5.374Y-3.422
X5.374Y-3.622
X3.7992Y-2.9921
X3.7992Y-3.1921
X4.8591Y-2.9921
X5.0591Y-2.9921
X4.426Y-2.9921
X4.626Y-2.9921
X5.374Y-2.9496
X5.374Y-3.1496
T0
M30
